<svg xmlns="http://www.w3.org/2000/svg" xmlns:xlink="http://www.w3.org/1999/xlink" width="500" zoomAndPan="magnify" viewBox="0 0 375 374.999991" height="500" preserveAspectRatio="xMidYMid meet" version="1.0"><defs><g/><clipPath id="5e9409fd8b"><path d="M 237.582031 123 L 347.832031 123 L 347.832031 251.929688 L 237.582031 251.929688 Z M 237.582031 123 " clip-rule="nonzero"/></clipPath></defs><g clip-path="url(#5e9409fd8b)"><path fill="#ab8529" d="M 340.5 174.707031 C 340.28125 175.355469 339.859375 176.101562 339.320312 176.527344 C 338.710938 177.011719 338.035156 177.417969 337.335938 177.757812 C 335.949219 178.433594 334.453125 178.855469 332.949219 179.1875 C 332.542969 179.277344 331.992188 179.445312 331.585938 179.3125 C 331.226562 179.199219 330.949219 178.84375 330.746094 178.546875 C 330.105469 177.605469 329.730469 176.460938 329.75 175.316406 C 329.753906 175.082031 329.765625 174.796875 329.808594 174.519531 C 329.851562 174.214844 329.933594 173.914062 330.078125 173.691406 C 330.335938 173.285156 330.917969 173.148438 331.339844 172.984375 C 332.847656 172.390625 334.441406 172.019531 336.046875 171.800781 C 336.65625 171.722656 337.257812 171.59375 337.867188 171.566406 C 338.433594 171.542969 338.9375 171.441406 339.46875 171.738281 C 340.535156 172.335938 340.882812 173.570312 340.5 174.707031 Z M 333.996094 169.363281 C 332.546875 169.285156 331.089844 169.304688 329.640625 169.417969 C 326.386719 169.671875 323.347656 170.542969 320.484375 171.917969 C 313.964844 175.050781 307.070312 176.109375 299.9375 176.132812 C 299.824219 176.132812 299.710938 176.132812 299.597656 176.128906 C 297.675781 176.042969 297.066406 175.503906 297.113281 173.683594 C 297.140625 172.742188 297.171875 171.800781 297.1875 170.859375 C 297.199219 170.3125 297.050781 169.613281 297.160156 169.035156 C 297.1875 168.902344 297.226562 168.773438 297.285156 168.65625 C 297.496094 168.226562 297.96875 167.976562 298.4375 167.882812 C 299.125 167.738281 299.863281 167.6875 300.558594 167.585938 C 301.414062 167.460938 302.277344 167.390625 303.140625 167.339844 C 304.835938 167.238281 321.441406 166.03125 322.328125 165.984375 C 323.160156 165.941406 334.164062 165.5625 336.171875 165.773438 C 336.53125 165.808594 336.910156 165.851562 337.214844 166.050781 C 337.722656 166.382812 337.828125 167.003906 337.914062 167.558594 C 338.03125 168.328125 337.9375 169.179688 337.921875 169.957031 C 337.664062 169.769531 337.332031 169.800781 337.042969 169.703125 C 336.746094 169.605469 336.429688 169.582031 336.121094 169.546875 C 335.414062 169.460938 334.707031 169.402344 333.996094 169.363281 Z M 293.332031 167.074219 C 292.234375 167.179688 288.703125 166.042969 290.179688 164.550781 C 295.050781 159.617188 297.675781 152.546875 297.207031 145.625 C 297.082031 143.835938 296.234375 142.207031 296.234375 140.410156 C 296.230469 139.054688 297 137.335938 297.5 136.097656 C 298.28125 134.167969 299.078125 130.792969 300.792969 129.558594 C 302.636719 128.234375 304.589844 127.066406 306.492188 125.820312 C 307.347656 125.261719 308.355469 124.855469 309.371094 124.730469 C 310.175781 124.632812 311.4375 124.597656 312.15625 125.167969 C 312.335938 125.3125 312.480469 125.496094 312.574219 125.722656 C 313.074219 126.921875 311.984375 129.167969 311.539062 130.265625 C 309.886719 134.382812 308.203125 138.488281 306.429688 142.554688 C 303.636719 148.960938 300.851562 155.261719 298.101562 161.679688 C 297.179688 163.832031 296.035156 166.816406 293.332031 167.074219 Z M 295.894531 168.570312 C 295.460938 170.855469 295.59375 173.339844 295.824219 175.648438 C 295.84375 175.832031 295.863281 176.027344 295.785156 176.195312 C 295.632812 176.527344 294.929688 176.46875 294.621094 176.507812 C 293.855469 176.609375 293.085938 176.648438 292.324219 176.746094 C 291.136719 176.902344 289.949219 177.070312 288.773438 177.304688 C 286.820312 177.695312 284.910156 178.28125 282.875 178.808594 C 282.550781 175.832031 282.96875 173.226562 284.792969 170.992188 C 285.925781 169.601562 286.414062 167.714844 288.191406 166.644531 C 288.417969 166.507812 288.894531 167.15625 289.027344 167.269531 C 289.378906 167.578125 289.828125 167.773438 290.253906 167.976562 C 291.050781 168.351562 291.988281 168.75 292.882812 168.738281 C 293.867188 168.730469 294.917969 168.242188 295.914062 168.324219 C 295.917969 168.40625 295.910156 168.492188 295.894531 168.570312 Z M 313.476562 140.695312 C 314.625 141.074219 314.980469 142.015625 314.421875 143.152344 C 313.308594 145.390625 311.992188 147.511719 310.003906 149.097656 C 308.507812 150.289062 306.894531 151.316406 304.859375 152.339844 C 304.859375 151.625 304.738281 151.179688 304.878906 150.847656 C 306.390625 147.199219 307.945312 143.566406 309.589844 139.683594 C 311.089844 140.066406 312.308594 140.308594 313.476562 140.695312 Z M 310.789062 155.820312 C 311.855469 156.960938 312.949219 158.074219 314.148438 159.328125 C 311.1875 159.925781 308.878906 161.347656 306.558594 162.738281 C 305.394531 163.4375 304.246094 164.179688 303.039062 164.792969 C 301.34375 165.652344 300.945312 165.675781 298.421875 165.578125 C 298.800781 162.21875 300.417969 159.34375 302.210938 156.660156 C 303.175781 155.214844 305.0625 154.542969 306.882812 154.238281 C 308.496094 153.96875 309.726562 154.683594 310.789062 155.820312 Z M 315.148438 160.414062 C 315.03125 160.746094 315.203125 161.125 315.46875 161.347656 C 315.742188 161.570312 316.089844 161.671875 316.433594 161.753906 C 317.136719 161.917969 317.851562 162.023438 318.574219 162.066406 C 318.671875 162.070312 318.773438 162.074219 318.871094 162.078125 C 319.386719 162.097656 320.285156 162.0625 320.554688 161.527344 C 320.632812 161.371094 320.722656 161.1875 320.894531 161.164062 C 321.003906 161.148438 321.109375 161.207031 321.203125 161.261719 C 321.789062 161.597656 322.34375 161.929688 322.972656 162.164062 C 323.335938 162.300781 323.695312 162.441406 324.054688 162.589844 C 324.597656 162.816406 325.039062 163.171875 325.519531 163.507812 C 325.621094 163.578125 325.730469 163.675781 325.714844 163.796875 C 325.695312 163.945312 325.503906 163.992188 325.355469 164.003906 C 324.300781 164.089844 323.253906 164.027344 322.1875 164.089844 C 320.972656 164.15625 319.761719 164.246094 318.546875 164.347656 C 316.121094 164.550781 313.703125 164.8125 311.285156 165.097656 C 310.300781 165.210938 309.28125 165.429688 308.292969 165.453125 C 307.445312 165.476562 306.597656 165.683594 305.738281 165.75 C 305.644531 165.753906 305.515625 165.730469 305.515625 165.636719 C 305.515625 165.59375 305.546875 165.5625 305.574219 165.53125 C 306.523438 164.472656 307.75 163.769531 308.921875 162.972656 C 309.574219 162.53125 310.230469 162.085938 310.9375 161.730469 C 311.296875 161.550781 311.691406 161.355469 312.085938 161.269531 C 313.128906 161.042969 314.082031 160.566406 315.148438 160.414062 Z M 316.488281 159.21875 C 316.917969 157.617188 317.441406 156.039062 318.066406 154.5 C 318.398438 153.671875 318.597656 152.777344 318.96875 151.96875 C 319.296875 151.253906 319.398438 150.4375 319.761719 149.730469 C 320.242188 148.796875 321.839844 148.636719 322.480469 149.507812 C 322.636719 149.722656 322.699219 149.992188 322.703125 150.257812 C 322.703125 150.28125 322.703125 150.304688 322.703125 150.328125 C 322.695312 150.976562 322.394531 151.578125 322.195312 152.1875 C 321.996094 152.792969 321.796875 153.402344 321.597656 154.007812 C 320.890625 156.148438 320.1875 158.296875 319.265625 160.355469 C 319.195312 160.515625 319.117188 160.679688 318.988281 160.796875 C 318.601562 161.148438 317.65625 160.816406 317.226562 160.679688 C 316.933594 160.589844 316.625 160.453125 316.480469 160.179688 C 316.324219 159.890625 316.402344 159.535156 316.488281 159.21875 Z M 322.367188 147.902344 C 322.417969 147.671875 322.484375 147.449219 322.542969 147.222656 C 322.625 146.882812 322.664062 146.539062 322.742188 146.199219 C 322.816406 145.875 322.941406 145.542969 322.914062 145.207031 C 322.519531 145.539062 322.40625 146.050781 322.183594 146.496094 C 322.03125 146.796875 321.90625 147.128906 321.730469 147.4375 C 321.714844 147.46875 321.691406 147.503906 321.65625 147.5 C 321.621094 147.5 321.597656 147.460938 321.585938 147.425781 C 321.191406 146.367188 320.828125 145.273438 320.640625 144.164062 C 320.636719 144.140625 320.632812 144.109375 320.644531 144.089844 C 320.660156 144.070312 320.691406 144.0625 320.714844 144.058594 C 320.933594 144.027344 321.152344 143.992188 321.371094 143.953125 C 321.902344 143.863281 322.433594 143.757812 322.972656 143.703125 C 323.132812 143.679688 323.296875 143.65625 323.449219 143.707031 C 323.785156 143.8125 324.011719 144.183594 324.226562 144.4375 C 324.414062 144.664062 324.601562 144.886719 324.789062 145.109375 C 324.960938 145.3125 325.085938 145.535156 325.242188 145.75 C 325.097656 145.886719 324.523438 146.386719 324.371094 146.507812 C 324.152344 146.679688 322.382812 147.828125 322.367188 147.902344 Z M 292.628906 147.230469 C 292.195312 148.695312 291.488281 150.082031 290.539062 151.277344 C 289.964844 152 289.21875 152.695312 288.300781 152.738281 C 287.550781 152.769531 286.863281 152.355469 286.226562 151.957031 C 285.605469 151.566406 284.972656 151.164062 284.496094 150.605469 C 284.164062 150.214844 283.914062 149.738281 283.84375 149.226562 C 283.824219 149.078125 283.816406 148.945312 283.824219 148.820312 C 283.84375 148.484375 283.964844 148.21875 284.21875 147.910156 C 285.5 146.332031 286.785156 144.75 288.109375 143.210938 C 288.71875 142.503906 289.363281 141.785156 290.222656 141.429688 C 291.082031 141.070312 292.214844 141.195312 292.753906 141.953125 C 292.917969 142.179688 293.015625 142.445312 293.066406 142.71875 C 293.34375 144.144531 293.035156 145.859375 292.628906 147.230469 Z M 346.15625 176.625 C 345.515625 175.867188 344.875 175.105469 344.152344 174.429688 C 343.800781 174.101562 343.425781 173.792969 343.03125 173.523438 C 342.847656 173.398438 341.820312 173.023438 341.792969 172.882812 C 341.65625 172.164062 341.242188 171.5 340.65625 171.0625 C 340.429688 170.890625 340.195312 170.714844 339.964844 170.550781 C 339.941406 170.53125 339.476562 170.230469 339.480469 170.28125 C 339.453125 169.050781 339.425781 167.816406 339.398438 166.585938 C 339.390625 166.277344 339.382812 165.964844 339.28125 165.675781 C 338.820312 164.375 336.867188 164.492188 335.769531 164.359375 C 332.492188 163.96875 329.203125 163.683594 326.382812 161.625 C 325.480469 160.964844 324.300781 160.691406 323.28125 160.179688 C 322.59375 159.835938 321.964844 159.378906 321.128906 158.863281 C 321.703125 157.136719 322.261719 155.398438 322.847656 153.671875 C 323.066406 153.042969 323.308594 152.425781 323.488281 151.785156 C 323.648438 151.195312 323.785156 150.574219 323.75 149.960938 C 323.730469 149.632812 323.648438 149.402344 323.414062 149.160156 C 323.292969 149.039062 323.152344 148.9375 323 148.855469 C 322.945312 148.828125 322.582031 148.644531 322.535156 148.699219 C 322.949219 148.253906 323.457031 147.914062 323.933594 147.546875 C 324.289062 147.277344 324.632812 147.003906 324.976562 146.722656 C 325.253906 146.488281 325.644531 146.273438 325.792969 145.925781 C 325.886719 145.664062 325.671875 145.3125 325.519531 145.117188 C 325.222656 144.75 324.90625 144.386719 324.625 144.015625 C 324.371094 143.683594 324.195312 143.316406 323.804688 143.128906 C 323.457031 142.964844 323.054688 142.996094 322.671875 143.035156 C 321.964844 143.113281 321.261719 143.21875 320.566406 143.355469 C 320.355469 143.394531 320.160156 143.503906 320.125 143.738281 C 320.109375 143.847656 320.136719 143.957031 320.160156 144.0625 C 320.335938 144.804688 320.507812 145.546875 320.683594 146.292969 C 320.84375 146.972656 320.96875 147.648438 321.140625 148.324219 C 321.128906 148.269531 320.765625 148.1875 320.703125 148.167969 C 320.554688 148.125 320.425781 148.09375 320.269531 148.109375 C 319.894531 148.144531 319.5625 148.390625 319.332031 148.691406 C 319.101562 148.992188 318.957031 149.347656 318.820312 149.703125 C 318.507812 150.484375 318.160156 151.25 317.867188 152.03125 C 317.371094 153.34375 316.878906 154.59375 316.457031 155.945312 C 316.226562 156.683594 316.289062 157.332031 315.390625 157.113281 C 314.761719 156.960938 314.25 156.078125 313.78125 155.671875 C 313.390625 155.324219 309.445312 151.539062 309.070312 151.835938 C 309.613281 151.402344 310.039062 151.042969 310.488281 150.707031 C 313.027344 148.804688 314.757812 146.296875 315.976562 143.40625 C 316.980469 141.023438 316.421875 139.773438 313.953125 139 C 312.769531 138.632812 311.558594 138.367188 310.238281 138.023438 C 310.40625 137.433594 310.488281 136.992188 310.65625 136.585938 C 311.621094 134.269531 312.589844 131.957031 313.585938 129.652344 C 314.234375 128.15625 314.589844 126.613281 314.398438 124.984375 C 314.28125 124.003906 313.605469 123.242188 312.632812 123.164062 C 310.585938 122.992188 308.578125 122.941406 306.605469 123.894531 C 304.417969 124.949219 302.550781 126.429688 300.601562 127.820312 C 300.046875 128.21875 299.46875 128.941406 298.917969 128.921875 C 297.03125 128.851562 295.765625 130.132812 294.199219 130.730469 C 293.054688 131.167969 291.78125 131.316406 290.554688 131.488281 C 288.632812 131.75 286.664062 131.765625 284.78125 132.179688 C 283.152344 132.539062 281.507812 133.007812 280.097656 133.925781 C 279.378906 134.398438 278.78125 134.976562 278.242188 135.644531 C 277.738281 136.265625 277.328125 136.925781 276.710938 137.453125 C 276.136719 137.945312 275.652344 138.617188 275.148438 139.183594 C 274.082031 140.378906 273.015625 141.578125 271.953125 142.777344 C 269.449219 145.59375 267.019531 148.476562 264.433594 151.210938 C 261.300781 154.523438 257.75 157.421875 255.023438 161.140625 C 253.769531 162.851562 252.738281 164.582031 252.617188 166.703125 C 252.367188 170.9375 251.328125 175.035156 250.566406 179.1875 C 249.847656 183.109375 249.289062 187.0625 248.453125 190.960938 C 247.375 195.972656 246.109375 200.945312 244.890625 205.925781 C 243.890625 210.027344 242.707031 214.078125 241.003906 217.953125 C 240.824219 218.363281 240.699219 218.8125 240.628906 219.253906 C 240.605469 219.410156 240.792969 219.691406 240.957031 219.761719 C 241.117188 219.835938 241.449219 219.800781 241.558594 219.679688 C 241.867188 219.355469 242.183594 218.988281 242.339844 218.578125 C 243.519531 215.492188 244.828125 212.445312 245.761719 209.285156 C 246.863281 205.570312 247.632812 201.757812 248.535156 197.988281 C 249.386719 194.433594 250.53125 190.917969 250.992188 187.316406 C 251.910156 180.179688 253.847656 173.234375 254.671875 166.089844 C 254.824219 164.792969 255.371094 163.359375 256.183594 162.351562 C 258.183594 159.875 260.0625 157.285156 262.546875 155.203125 C 264.464844 153.59375 266.324219 151.859375 267.9375 149.953125 C 271.035156 146.292969 273.988281 142.515625 277.59375 139.3125 C 278.257812 138.722656 278.75 137.925781 279.285156 137.203125 C 280.476562 135.585938 281.917969 134.34375 283.980469 134.050781 C 285.78125 133.796875 287.582031 133.488281 289.394531 133.394531 C 290.828125 133.324219 292.28125 133.203125 293.652344 132.746094 C 294.234375 132.554688 294.816406 132.386719 295.351562 132.089844 C 296.046875 131.707031 296.742188 131.324219 297.4375 130.9375 C 297.570312 130.863281 297.757812 130.796875 297.859375 130.914062 C 297.945312 131.007812 297.898438 131.160156 297.847656 131.277344 C 297.574219 131.902344 297.304688 132.527344 297.050781 133.160156 C 296.726562 133.960938 296.414062 134.738281 296.144531 135.5625 C 295.597656 137.230469 294.992188 138.886719 294.160156 140.4375 C 294.097656 140.5625 294.011719 140.695312 293.875 140.710938 C 293.738281 140.726562 293.628906 140.613281 293.527344 140.519531 C 292.972656 140.011719 292.125 139.933594 291.402344 140.132812 C 289.453125 140.667969 287.792969 142.410156 286.457031 143.835938 C 285.445312 144.90625 284.578125 146.210938 283.449219 147.136719 C 282.257812 148.109375 281.230469 149.472656 280.269531 150.667969 C 279.246094 151.9375 278.308594 153.28125 277.566406 154.730469 C 275.203125 159.359375 271.683594 163.113281 268.351562 167.011719 C 267.976562 167.453125 267.507812 167.773438 267.078125 168.15625 C 266.769531 168.4375 266.578125 168.792969 266.28125 169.082031 C 265.386719 169.949219 264.335938 170.691406 263.40625 171.523438 C 262.859375 172.015625 262.335938 172.539062 261.78125 173.023438 C 261.355469 173.398438 260.890625 173.71875 260.589844 174.210938 C 260.457031 174.433594 261.609375 174.382812 261.679688 174.363281 C 262.140625 174.238281 262.503906 173.984375 262.875 173.710938 C 264.179688 172.742188 265.398438 171.703125 266.628906 170.65625 C 268.867188 168.746094 271.003906 166.695312 272.769531 164.328125 C 273.597656 163.21875 274.449219 162.132812 275.285156 161.03125 C 276.074219 159.996094 277.074219 158.917969 277.621094 157.742188 C 278.6875 155.457031 279.683594 153.09375 281.304688 151.132812 C 281.582031 150.800781 281.925781 150.464844 282.359375 150.433594 C 283.089844 150.382812 283.515625 151.085938 283.945312 151.542969 C 284.4375 152.066406 285.058594 152.511719 285.675781 152.882812 C 286.816406 153.570312 288.253906 154.074219 289.574219 153.628906 C 290.582031 153.285156 291.324219 152.4375 291.933594 151.570312 C 292.746094 150.410156 293.457031 149.144531 293.929688 147.808594 C 294.371094 146.574219 294.4375 145.195312 294.488281 143.890625 C 294.496094 143.71875 294.53125 142.695312 294.964844 143.089844 C 295.019531 143.140625 295.042969 143.207031 295.066406 143.273438 C 296.375 147.101562 295.835938 151.390625 294.238281 155.105469 C 293.082031 157.800781 291.394531 160.238281 289.5 162.464844 C 288.628906 163.488281 287.539062 164.378906 286.71875 165.414062 C 285.726562 166.675781 284.78125 167.980469 283.824219 169.265625 C 281.949219 171.78125 280.648438 174.527344 280.75 177.789062 C 280.777344 178.679688 280.5625 179.570312 280.460938 180.441406 C 279.574219 180.996094 278.824219 181.519531 278.023438 181.949219 C 275.441406 183.339844 273.433594 185.324219 271.917969 187.808594 C 269.785156 191.304688 267.703125 194.828125 265.570312 198.316406 C 263.421875 201.828125 261.304688 205.34375 257.773438 207.742188 C 256.464844 208.632812 255.320312 209.800781 254.222656 210.957031 C 251.480469 213.863281 248.6875 216.738281 246.140625 219.808594 C 243.445312 223.058594 240.996094 226.507812 238.480469 229.902344 C 238.203125 230.273438 237.644531 230.726562 238.183594 231.464844 C 239.488281 230.648438 240.296875 229.394531 241.226562 228.269531 C 243.480469 225.542969 245.617188 222.707031 247.992188 220.085938 C 251.28125 216.453125 254.269531 212.515625 258.199219 209.488281 C 260.769531 207.507812 262.839844 205.300781 264.746094 202.691406 C 265.90625 201.101562 267.109375 199.722656 268.09375 198.015625 C 269.015625 196.417969 269.753906 194.761719 270.632812 193.136719 C 272.546875 189.601562 274.660156 186.195312 278.09375 183.902344 C 279.605469 182.890625 281.21875 182.023438 282.816406 181.148438 C 285.5625 179.636719 288.5 178.847656 291.648438 178.734375 C 293.121094 178.683594 294.582031 178.363281 296.058594 178.265625 C 298.660156 178.09375 301.265625 177.921875 303.875 177.898438 C 306.132812 177.878906 313.453125 176.578125 315.601562 175.730469 C 318.671875 174.515625 321.75 173.285156 324.871094 172.210938 C 326.0625 171.800781 327.296875 171.632812 328.503906 171.316406 C 329.351562 171.097656 330.21875 170.957031 331.089844 170.902344 C 331.652344 170.867188 332.296875 170.820312 332.855469 170.894531 C 333.382812 170.964844 333.921875 171.125 334.453125 171.214844 C 333.554688 171.617188 332.476562 171.625 331.539062 171.949219 C 331.042969 172.117188 330.539062 172.296875 330.082031 172.554688 C 329.527344 172.871094 328.921875 173.542969 328.742188 174.164062 C 328.574219 174.746094 328.671875 175.496094 328.765625 176.082031 C 328.945312 177.257812 329.28125 178.65625 329.945312 179.664062 C 330.519531 180.53125 331.371094 180.984375 332.402344 180.878906 C 333.230469 180.796875 334.039062 180.558594 334.820312 180.28125 C 336.054688 179.839844 337.257812 179.320312 338.417969 178.714844 C 338.375 179.132812 338.121094 179.480469 337.804688 179.777344 C 337.664062 179.910156 337.511719 180.03125 337.359375 180.144531 C 334.984375 181.917969 332.046875 183.113281 329.199219 183.886719 C 326.996094 184.484375 324.765625 184.964844 322.550781 185.507812 C 317.453125 186.746094 312.261719 187.5625 307.238281 189.128906 C 306.019531 189.507812 304.804688 189.917969 303.640625 190.441406 C 302.1875 191.09375 301.539062 191.511719 300.839844 192.925781 C 300.78125 193.042969 300.722656 193.179688 300.765625 193.304688 C 300.820312 193.453125 301.007812 193.519531 301.167969 193.488281 C 301.324219 193.457031 301.457031 193.355469 301.585938 193.261719 C 302.328125 192.710938 303.167969 192.285156 304.050781 192.015625 C 305.007812 191.722656 305.464844 191.328125 306.457031 191.046875 C 308.871094 190.359375 311.28125 189.644531 313.71875 189.066406 C 319.046875 187.796875 324.386719 186.59375 329.726562 185.390625 C 329.777344 185.378906 329.824219 185.371094 329.875 185.355469 C 331.429688 184.996094 332.941406 184.449219 334.347656 183.691406 C 335.738281 182.941406 337.15625 182.210938 338.378906 181.191406 C 339.289062 180.433594 340.0625 179.515625 340.660156 178.5 C 340.960938 177.988281 341.21875 177.453125 341.425781 176.898438 C 341.617188 176.398438 341.6875 175.835938 341.996094 175.402344 C 342.863281 175.816406 343.730469 176.574219 344.367188 177.289062 C 345.960938 179.085938 345.722656 181.289062 344.882812 183.382812 C 343.699219 186.339844 341.464844 188.464844 339.203125 190.566406 C 338.621094 191.105469 337.949219 191.558594 337.390625 192.121094 C 335.226562 194.320312 334.066406 197.019531 333.71875 200.050781 C 333.273438 203.863281 331.359375 206.640625 328.035156 208.496094 C 327.738281 208.664062 327.464844 208.875 327.15625 209.027344 C 325.382812 209.910156 323.886719 211.125 322.800781 212.785156 C 321.335938 215.027344 319.144531 216.152344 316.691406 216.902344 C 315.816406 217.171875 314.949219 217.472656 314.0625 217.675781 C 306.726562 219.347656 299.394531 221.035156 292.042969 222.640625 C 287.324219 223.667969 283.21875 225.652344 280.238281 229.585938 C 279.0625 231.136719 277.863281 232.660156 276.726562 234.238281 C 276.335938 234.78125 276.074219 235.425781 275.800781 236.042969 C 273.703125 240.730469 271.621094 245.421875 269.53125 250.113281 C 269.261719 250.714844 268.792969 251.28125 269.265625 252.09375 C 269.535156 252.03125 269.960938 252.058594 270.101562 251.871094 C 270.722656 251.0625 271.363281 250.242188 271.804688 249.332031 C 273.398438 246.042969 275.171875 242.8125 276.394531 239.386719 C 277.613281 235.960938 279.601562 233.121094 281.761719 230.308594 C 283.875 227.558594 286.734375 225.949219 289.941406 224.949219 C 292.441406 224.167969 295.019531 223.628906 297.578125 223.054688 C 301.367188 222.199219 305.183594 221.484375 308.960938 220.574219 C 312.277344 219.777344 315.703125 219.476562 318.902344 218.097656 C 321.0625 217.164062 322.949219 216.042969 324.207031 214.007812 C 325.136719 212.507812 326.488281 211.5625 328.042969 210.714844 C 332.230469 208.421875 335.363281 205.253906 335.765625 200.144531 C 335.785156 199.921875 335.867188 199.703125 335.910156 199.476562 C 336.503906 196.324219 338.054688 193.789062 340.523438 191.699219 C 342.167969 190.308594 343.605469 188.65625 345.027344 187.023438 C 346.332031 185.535156 346.988281 183.683594 347.378906 181.761719 C 347.757812 179.878906 347.441406 178.132812 346.15625 176.625 " fill-opacity="1" fill-rule="nonzero"/></g><g fill="#ab8529" fill-opacity="1"><g transform="translate(193.98514, 191.775127)"><g><path d="M 11.203125 -5.953125 C 11.503906 -6.265625 11.773438 -6.382812 12.015625 -6.3125 C 12.253906 -6.25 12.40625 -6.070312 12.46875 -5.78125 C 12.53125 -5.5 12.445312 -5.1875 12.21875 -4.84375 C 11.757812 -4.15625 11.109375 -3.421875 10.265625 -2.640625 C 9.421875 -1.859375 8.515625 -1.171875 7.546875 -0.578125 C 6.578125 0.00390625 5.660156 0.316406 4.796875 0.359375 C 3.046875 0.453125 2.222656 -0.382812 2.328125 -2.15625 C 2.347656 -2.382812 2.394531 -2.695312 2.46875 -3.09375 C 2.539062 -3.476562 2.597656 -3.851562 2.640625 -4.21875 C 2.691406 -4.582031 2.671875 -4.828125 2.578125 -4.953125 C 2.460938 -5.054688 2.332031 -5.109375 2.1875 -5.109375 C 2.039062 -5.109375 1.882812 -5.09375 1.71875 -5.0625 C 1.53125 -5.019531 1.359375 -5.007812 1.203125 -5.03125 C 0.335938 -5.125 -0.109375 -5.566406 -0.140625 -6.359375 C -0.148438 -7.453125 0.0507812 -8.5 0.46875 -9.5 C 0.601562 -9.8125 0.851562 -10.015625 1.21875 -10.109375 C 1.59375 -10.210938 1.929688 -10.171875 2.234375 -9.984375 C 2.441406 -9.859375 2.535156 -9.6875 2.515625 -9.46875 C 2.484375 -9.164062 2.429688 -8.867188 2.359375 -8.578125 C 2.328125 -8.453125 2.296875 -8.320312 2.265625 -8.1875 C 2.109375 -7.414062 2.109375 -7.015625 2.265625 -6.984375 C 2.429688 -6.953125 2.789062 -7.160156 3.34375 -7.609375 C 3.757812 -7.898438 4.21875 -8.019531 4.71875 -7.96875 C 5.375 -7.914062 5.640625 -7.546875 5.515625 -6.859375 C 5.410156 -6.398438 5.296875 -5.929688 5.171875 -5.453125 C 4.921875 -4.472656 4.726562 -3.484375 4.59375 -2.484375 C 4.539062 -1.804688 4.660156 -1.410156 4.953125 -1.296875 C 5.253906 -1.179688 5.648438 -1.25 6.140625 -1.5 C 6.628906 -1.75 7.144531 -2.085938 7.6875 -2.515625 C 8.226562 -2.941406 8.707031 -3.359375 9.125 -3.765625 C 9.539062 -4.171875 9.820312 -4.460938 9.96875 -4.640625 C 10.050781 -4.734375 10.171875 -4.863281 10.328125 -5.03125 C 10.484375 -5.195312 10.644531 -5.363281 10.8125 -5.53125 C 10.988281 -5.71875 11.117188 -5.859375 11.203125 -5.953125 Z M 11.203125 -5.953125 "/></g></g></g><g fill="#ab8529" fill-opacity="1"><g transform="translate(204.852757, 191.775127)"><g><path d="M 9.171875 -6.3125 C 9.273438 -6.25 9.320312 -6.148438 9.3125 -6.015625 C 9.3125 -5.878906 9.269531 -5.753906 9.1875 -5.640625 C 8.625 -4.796875 8.015625 -4.046875 7.359375 -3.390625 C 6.703125 -2.734375 5.976562 -2.242188 5.1875 -1.921875 C 4.40625 -1.597656 3.507812 -1.507812 2.5 -1.65625 C 1.8125 -1.757812 1.296875 -1.988281 0.953125 -2.34375 C 0.609375 -2.695312 0.351562 -3.195312 0.1875 -3.84375 C -0.09375 -4.851562 -0.15625 -5.898438 0 -6.984375 C 0.125 -7.597656 0.507812 -7.921875 1.15625 -7.953125 C 1.738281 -7.953125 2.054688 -7.691406 2.109375 -7.171875 C 2.117188 -6.742188 2.117188 -6.316406 2.109375 -5.890625 C 2.109375 -5.835938 2.109375 -5.785156 2.109375 -5.734375 C 2.066406 -4.578125 2.25 -3.785156 2.65625 -3.359375 C 3.070312 -2.941406 3.601562 -2.832031 4.25 -3.03125 C 4.90625 -3.238281 5.601562 -3.703125 6.34375 -4.421875 C 6.4375 -4.515625 6.550781 -4.640625 6.6875 -4.796875 C 6.832031 -4.953125 6.988281 -5.113281 7.15625 -5.28125 C 7.382812 -5.519531 7.578125 -5.722656 7.734375 -5.890625 C 8.191406 -6.359375 8.671875 -6.5 9.171875 -6.3125 Z M 1 -9.796875 C 0.488281 -9.828125 0.191406 -10.101562 0.109375 -10.625 C 0.0546875 -11.03125 0.117188 -11.421875 0.296875 -11.796875 C 0.460938 -12.109375 0.734375 -12.320312 1.109375 -12.4375 C 1.492188 -12.5625 1.851562 -12.53125 2.1875 -12.34375 C 2.3125 -12.28125 2.398438 -12.1875 2.453125 -12.0625 C 2.515625 -11.9375 2.535156 -11.835938 2.515625 -11.765625 C 2.503906 -10.441406 2 -9.785156 1 -9.796875 Z M 1 -9.796875 "/></g></g></g><g fill="#ab8529" fill-opacity="1"><g transform="translate(212.572166, 191.775127)"><g><path d="M 16.625 -5.921875 C 16.625 -5.921875 16.632812 -5.921875 16.65625 -5.921875 C 16.75 -5.898438 16.835938 -5.863281 16.921875 -5.8125 C 17.015625 -5.769531 17.078125 -5.6875 17.109375 -5.5625 C 17.160156 -5.320312 17.09375 -5.132812 16.90625 -5 C 16.144531 -4.46875 15.332031 -4.050781 14.46875 -3.75 C 13.6875 -3.5 12.898438 -3.335938 12.109375 -3.265625 C 11.316406 -3.203125 10.515625 -3.207031 9.703125 -3.28125 C 8.648438 -3.394531 7.800781 -3.894531 7.15625 -4.78125 C 6.957031 -5.0625 6.75 -5.34375 6.53125 -5.625 C 6.332031 -5.894531 6.125 -6.175781 5.90625 -6.46875 C 5.71875 -6.71875 5.488281 -6.75 5.21875 -6.5625 C 4.882812 -6.320312 4.582031 -6.046875 4.3125 -5.734375 C 4.039062 -5.429688 3.785156 -5.113281 3.546875 -4.78125 C 3.535156 -4.738281 3.515625 -4.703125 3.484375 -4.671875 C 3.390625 -4.566406 3.300781 -4.445312 3.21875 -4.3125 C 3.101562 -4.101562 2.972656 -3.914062 2.828125 -3.75 C 2.585938 -3.476562 2.273438 -3.300781 1.890625 -3.21875 C 1.503906 -3.132812 1.132812 -3.164062 0.78125 -3.3125 C 0.519531 -3.445312 0.351562 -3.640625 0.28125 -3.890625 C 0.0390625 -4.835938 -0.101562 -5.789062 -0.15625 -6.75 C -0.15625 -7.269531 0.078125 -7.578125 0.546875 -7.671875 C 1.109375 -7.796875 1.507812 -7.617188 1.75 -7.140625 C 1.78125 -7.066406 1.804688 -6.972656 1.828125 -6.859375 C 1.847656 -6.753906 1.878906 -6.648438 1.921875 -6.546875 C 1.972656 -6.441406 2.0625 -6.351562 2.1875 -6.28125 C 2.34375 -6.40625 2.484375 -6.523438 2.609375 -6.640625 C 2.898438 -6.898438 3.1875 -7.148438 3.46875 -7.390625 C 3.800781 -7.671875 4.148438 -7.867188 4.515625 -7.984375 C 4.890625 -8.097656 5.285156 -8.15625 5.703125 -8.15625 C 6.691406 -8.15625 7.46875 -7.769531 8.03125 -7 C 8.144531 -6.832031 8.257812 -6.675781 8.375 -6.53125 C 8.625 -6.144531 8.890625 -5.773438 9.171875 -5.421875 C 9.617188 -4.847656 10.210938 -4.550781 10.953125 -4.53125 C 11.703125 -4.5 12.421875 -4.566406 13.109375 -4.734375 C 13.804688 -4.910156 14.476562 -5.175781 15.125 -5.53125 C 15.15625 -5.550781 15.1875 -5.570312 15.21875 -5.59375 C 15.4375 -5.71875 15.660156 -5.816406 15.890625 -5.890625 C 16.117188 -5.972656 16.363281 -5.984375 16.625 -5.921875 Z M 16.625 -5.921875 "/></g></g></g><g fill="#ab8529" fill-opacity="1"><g transform="translate(228.111725, 191.775127)"><g><path d="M 13.625 -6.453125 C 13.789062 -6.390625 13.882812 -6.269531 13.90625 -6.09375 C 13.925781 -5.914062 13.878906 -5.757812 13.765625 -5.625 C 13.660156 -5.488281 13.507812 -5.320312 13.3125 -5.125 C 13.125 -4.9375 12.9375 -4.75 12.75 -4.5625 C 12.59375 -4.4375 12.46875 -4.328125 12.375 -4.234375 C 10.664062 -2.523438 9.035156 -0.75 7.484375 1.09375 C 7.285156 1.3125 7.117188 1.546875 6.984375 1.796875 C 6.859375 2.046875 6.773438 2.328125 6.734375 2.640625 C 6.597656 3.972656 6.347656 5.617188 5.984375 7.578125 C 5.628906 9.535156 5.148438 11.453125 4.546875 13.328125 C 3.953125 15.210938 3.25 16.703125 2.4375 17.796875 C 1.84375 18.554688 1.0625 18.972656 0.09375 19.046875 C -1.425781 19.085938 -2.296875 18.347656 -2.515625 16.828125 C -2.671875 15.347656 -2.46875 13.785156 -1.90625 12.140625 C -1.34375 10.503906 -0.597656 8.921875 0.328125 7.390625 C 1.253906 5.867188 2.175781 4.582031 3.09375 3.53125 C 3.539062 2.925781 3.953125 1.890625 4.328125 0.421875 C 4.710938 -1.046875 4.945312 -2.328125 5.03125 -3.421875 C 5.070312 -3.972656 5.035156 -4.273438 4.921875 -4.328125 C 4.816406 -4.390625 4.617188 -4.328125 4.328125 -4.140625 C 4.066406 -4.003906 3.75 -3.863281 3.375 -3.71875 C 3.007812 -3.582031 2.566406 -3.523438 2.046875 -3.546875 C 1.347656 -3.617188 0.835938 -3.882812 0.515625 -4.34375 C 0.191406 -4.800781 0.0234375 -5.335938 0.015625 -5.953125 C 0.00390625 -6.578125 0.0976562 -7.148438 0.296875 -7.671875 C 0.546875 -8.179688 0.867188 -8.660156 1.265625 -9.109375 C 1.660156 -9.554688 2.085938 -9.953125 2.546875 -10.296875 C 3.304688 -10.859375 4.117188 -10.96875 4.984375 -10.625 C 5.109375 -10.570312 5.210938 -10.492188 5.296875 -10.390625 C 5.378906 -10.285156 5.414062 -10.164062 5.40625 -10.03125 C 5.382812 -9.894531 5.332031 -9.796875 5.25 -9.734375 C 5.164062 -9.671875 5.070312 -9.628906 4.96875 -9.609375 C 4.226562 -9.328125 3.628906 -8.851562 3.171875 -8.1875 C 2.722656 -7.519531 2.441406 -6.875 2.328125 -6.25 C 2.222656 -5.625 2.316406 -5.238281 2.609375 -5.09375 C 2.804688 -5.050781 3.066406 -5.144531 3.390625 -5.375 C 3.710938 -5.613281 4.019531 -5.882812 4.3125 -6.1875 C 4.613281 -6.5 4.832031 -6.734375 4.96875 -6.890625 C 5.363281 -7.441406 5.914062 -7.710938 6.625 -7.703125 C 7.414062 -7.679688 7.8125 -7.289062 7.8125 -6.53125 C 7.789062 -6 7.734375 -5.425781 7.640625 -4.8125 C 7.535156 -4.070312 7.484375 -3.414062 7.484375 -2.84375 C 7.535156 -2.3125 7.800781 -2.195312 8.28125 -2.5 C 8.757812 -2.800781 9.425781 -3.34375 10.28125 -4.125 C 10.757812 -4.550781 11.207031 -4.953125 11.625 -5.328125 C 12.039062 -5.703125 12.398438 -6 12.703125 -6.21875 C 13.003906 -6.445312 13.3125 -6.523438 13.625 -6.453125 Z M 1.65625 15.109375 C 2.0625 14.003906 2.535156 12.429688 3.078125 10.390625 C 3.628906 8.347656 3.953125 6.753906 4.046875 5.609375 C 3.753906 6.085938 3.519531 6.414062 3.34375 6.59375 C 3.269531 6.6875 3.21875 6.773438 3.1875 6.859375 C 2.375 8.128906 1.632812 9.441406 0.96875 10.796875 C 0.507812 11.753906 0.160156 12.6875 -0.078125 13.59375 C -0.316406 14.5 -0.429688 15.484375 -0.421875 16.546875 C -0.421875 16.972656 -0.375 17.28125 -0.28125 17.46875 C -0.1875 17.664062 -0.03125 17.660156 0.1875 17.453125 C 0.820312 16.753906 1.3125 15.972656 1.65625 15.109375 Z M 1.65625 15.109375 "/></g></g></g><g fill="#ab8529" fill-opacity="1"><g transform="translate(86.042935, 173.430529)"><g><path d="M -1.671875 -14.46875 C -2.265625 -15.1875 -2.5625 -15.894531 -2.5625 -16.59375 C -2.5625 -17.300781 -2.398438 -17.910156 -2.078125 -18.421875 C -1.753906 -18.929688 -1.222656 -19.363281 -0.484375 -19.71875 C 0.242188 -20.070312 1.070312 -20.25 2 -20.25 L 13.84375 -20.25 C 14.4375 -20.25 15.09375 -20.304688 15.8125 -20.421875 C 16.539062 -20.535156 17.050781 -20.648438 17.34375 -20.765625 L 17.34375 -17.125 L 17.046875 -17.15625 L 17.046875 -17.65625 C 17.046875 -18.113281 16.878906 -18.507812 16.546875 -18.84375 C 16.222656 -19.1875 15.84375 -19.367188 15.40625 -19.390625 L 9.90625 -19.390625 L 9.90625 -2.078125 C 9.925781 -1.390625 10.238281 -0.867188 10.84375 -0.515625 C 11.125 -0.359375 11.429688 -0.28125 11.765625 -0.28125 L 12.140625 -0.28125 L 12.140625 0 L 5.8125 0 L 5.8125 -0.28125 L 6.1875 -0.28125 C 6.6875 -0.28125 7.113281 -0.453125 7.46875 -0.796875 C 7.820312 -1.148438 8.007812 -1.566406 8.03125 -2.046875 L 8.03125 -19.390625 L 2 -19.390625 C 0.457031 -19.390625 -0.660156 -18.894531 -1.359375 -17.90625 C -1.722656 -17.40625 -1.90625 -16.878906 -1.90625 -16.328125 C -1.90625 -15.785156 -1.75 -15.21875 -1.4375 -14.625 Z M -1.671875 -14.46875 "/></g></g></g><g fill="#ab8529" fill-opacity="1"><g transform="translate(103.894659, 173.430529)"><g><path d="M 15.796875 -0.28125 C 16.296875 -0.28125 16.722656 -0.457031 17.078125 -0.8125 C 17.441406 -1.175781 17.632812 -1.597656 17.65625 -2.078125 L 17.65625 -9.5625 L 5.828125 -9.5625 L 5.828125 -2.078125 C 5.828125 -1.578125 6.007812 -1.148438 6.375 -0.796875 C 6.75 -0.453125 7.1875 -0.28125 7.6875 -0.28125 L 8.0625 -0.28125 L 8.0625 0 L 1.734375 0 L 1.734375 -0.28125 L 2.109375 -0.28125 C 2.609375 -0.28125 3.035156 -0.453125 3.390625 -0.796875 C 3.742188 -1.148438 3.929688 -1.578125 3.953125 -2.078125 L 3.953125 -18.140625 C 3.929688 -18.640625 3.742188 -19.0625 3.390625 -19.40625 C 3.035156 -19.757812 2.609375 -19.9375 2.109375 -19.9375 L 1.734375 -19.9375 L 1.734375 -20.21875 L 8.0625 -20.21875 L 8.0625 -19.9375 L 7.6875 -19.9375 C 7.1875 -19.9375 6.753906 -19.757812 6.390625 -19.40625 C 6.035156 -19.0625 5.847656 -18.640625 5.828125 -18.140625 L 5.828125 -10.421875 L 17.65625 -10.421875 L 17.65625 -18.140625 C 17.632812 -18.835938 17.328125 -19.359375 16.734375 -19.703125 C 16.441406 -19.859375 16.128906 -19.9375 15.796875 -19.9375 L 15.421875 -19.9375 L 15.421875 -20.21875 L 21.75 -20.21875 L 21.75 -19.9375 L 21.375 -19.9375 C 20.875 -19.9375 20.445312 -19.753906 20.09375 -19.390625 C 19.738281 -19.035156 19.550781 -18.609375 19.53125 -18.109375 L 19.53125 -2.078125 C 19.550781 -1.578125 19.738281 -1.148438 20.09375 -0.796875 C 20.445312 -0.453125 20.875 -0.28125 21.375 -0.28125 L 21.75 -0.28125 L 21.75 0 L 15.421875 0 L 15.421875 -0.28125 Z M 15.796875 -0.28125 "/></g></g></g><g fill="#ab8529" fill-opacity="1"><g transform="translate(127.379201, 173.430529)"><g><path d="M 2.109375 -0.28125 C 2.609375 -0.28125 3.035156 -0.457031 3.390625 -0.8125 C 3.742188 -1.175781 3.929688 -1.609375 3.953125 -2.109375 L 3.953125 -18.28125 C 3.953125 -18.75 3.769531 -19.140625 3.40625 -19.453125 C 3.039062 -19.773438 2.609375 -19.9375 2.109375 -19.9375 L 1.765625 -19.9375 L 1.734375 -20.21875 L 10.203125 -20.21875 C 10.796875 -20.21875 11.441406 -20.273438 12.140625 -20.390625 C 12.847656 -20.503906 13.347656 -20.625 13.640625 -20.75 L 13.640625 -17.109375 L 13.34375 -17.109375 L 13.34375 -17.625 C 13.34375 -18.082031 13.179688 -18.472656 12.859375 -18.796875 C 12.546875 -19.128906 12.171875 -19.304688 11.734375 -19.328125 L 5.828125 -19.328125 L 5.828125 -10.40625 L 10.71875 -10.40625 C 11.101562 -10.414062 11.429688 -10.554688 11.703125 -10.828125 C 11.972656 -11.097656 12.109375 -11.4375 12.109375 -11.84375 L 12.109375 -12.25 L 12.390625 -12.25 L 12.390625 -7.6875 L 12.109375 -7.6875 L 12.109375 -8.125 C 12.109375 -8.507812 11.976562 -8.832031 11.71875 -9.09375 C 11.457031 -9.363281 11.132812 -9.507812 10.75 -9.53125 L 5.828125 -9.53125 L 5.828125 -0.890625 L 9.96875 -0.890625 C 11.394531 -0.890625 12.484375 -1.207031 13.234375 -1.84375 C 13.984375 -2.476562 14.609375 -3.425781 15.109375 -4.6875 L 15.40625 -4.6875 L 13.71875 0 L 1.734375 0 L 1.734375 -0.28125 Z M 2.109375 -0.28125 "/></g></g></g><g fill="#ab8529" fill-opacity="1"><g transform="translate(144.046584, 173.430529)"><g/></g></g><g fill="#ab8529" fill-opacity="1"><g transform="translate(151.26816, 173.430529)"><g><path d="M 27.390625 4.90625 C 26.578125 5.125 25.859375 5.234375 25.234375 5.234375 C 24.609375 5.234375 24.054688 5.191406 23.578125 5.109375 C 23.097656 5.035156 22.582031 4.882812 22.03125 4.65625 C 21.476562 4.4375 20.960938 4.179688 20.484375 3.890625 C 20.003906 3.609375 19.519531 3.253906 19.03125 2.828125 C 18.144531 2.117188 17.34375 1.347656 16.625 0.515625 C 15.90625 -0.304688 14.515625 -1.859375 12.453125 -4.140625 C 10.390625 -6.421875 9.019531 -7.9375 8.34375 -8.6875 C 7.675781 -9.445312 7.160156 -9.84375 6.796875 -9.875 L 6.796875 -10.171875 C 7.910156 -10.171875 8.65625 -10.191406 9.03125 -10.234375 C 9.40625 -10.285156 9.800781 -10.375 10.21875 -10.5 C 10.644531 -10.625 11.003906 -10.789062 11.296875 -11 C 12.429688 -11.738281 13 -12.953125 13 -14.640625 C 13 -16.046875 12.6875 -17.171875 12.0625 -18.015625 C 11.4375 -18.867188 10.554688 -19.304688 9.421875 -19.328125 L 5.828125 -19.328125 L 5.828125 -2.109375 C 5.828125 -1.628906 6.003906 -1.203125 6.359375 -0.828125 C 6.722656 -0.460938 7.164062 -0.28125 7.6875 -0.28125 L 8.03125 -0.28125 L 8.0625 0 L 1.734375 0 L 1.734375 -0.28125 L 2.109375 -0.28125 C 2.585938 -0.28125 3.007812 -0.453125 3.375 -0.796875 C 3.738281 -1.148438 3.929688 -1.578125 3.953125 -2.078125 L 3.953125 -18.109375 C 3.929688 -18.609375 3.742188 -19.035156 3.390625 -19.390625 C 3.035156 -19.753906 2.609375 -19.9375 2.109375 -19.9375 L 1.734375 -19.9375 L 1.734375 -20.21875 L 9.53125 -20.21875 C 11.226562 -20.21875 12.59375 -19.738281 13.625 -18.78125 C 14.65625 -17.832031 15.171875 -16.570312 15.171875 -15 C 15.171875 -13.4375 14.695312 -12.09375 13.75 -10.96875 C 12.8125 -9.84375 11.65625 -9.28125 10.28125 -9.28125 C 10.28125 -9.28125 10.269531 -9.28125 10.25 -9.28125 C 10.90625 -8.582031 11.648438 -7.769531 12.484375 -6.84375 C 15.816406 -3.164062 17.953125 -0.859375 18.890625 0.078125 C 19.835938 1.023438 20.671875 1.800781 21.390625 2.40625 C 22.117188 3.019531 22.757812 3.46875 23.3125 3.75 C 24.445312 4.375 25.570312 4.6875 26.6875 4.6875 C 26.925781 4.6875 27.160156 4.664062 27.390625 4.625 Z M 27.390625 4.90625 "/></g></g></g><g fill="#ab8529" fill-opacity="1"><g transform="translate(170.102009, 173.430529)"><g><path d="M 2.109375 -0.28125 C 2.609375 -0.28125 3.035156 -0.457031 3.390625 -0.8125 C 3.742188 -1.175781 3.929688 -1.609375 3.953125 -2.109375 L 3.953125 -18.140625 C 3.929688 -18.640625 3.742188 -19.0625 3.390625 -19.40625 C 3.035156 -19.757812 2.609375 -19.9375 2.109375 -19.9375 L 1.734375 -19.9375 L 1.734375 -20.21875 L 8.0625 -20.21875 L 8.0625 -19.9375 L 7.6875 -19.9375 C 7.1875 -19.9375 6.753906 -19.757812 6.390625 -19.40625 C 6.035156 -19.0625 5.847656 -18.640625 5.828125 -18.140625 L 5.828125 -2.109375 C 5.828125 -1.609375 6.007812 -1.175781 6.375 -0.8125 C 6.75 -0.457031 7.1875 -0.28125 7.6875 -0.28125 L 8.0625 -0.28125 L 8.0625 0 L 1.734375 0 L 1.734375 -0.28125 Z M 2.109375 -0.28125 "/></g></g></g><g fill="#ab8529" fill-opacity="1"><g transform="translate(179.865577, 173.430529)"><g><path d="M 12.109375 0.40625 C 9.023438 0.382812 6.523438 -0.585938 4.609375 -2.515625 C 2.691406 -4.441406 1.734375 -6.972656 1.734375 -10.109375 C 1.734375 -13.253906 2.691406 -15.789062 4.609375 -17.71875 C 6.523438 -19.65625 9.023438 -20.625 12.109375 -20.625 C 14.765625 -20.625 17.101562 -19.96875 19.125 -18.65625 L 19.703125 -14.59375 L 19.4375 -14.59375 C 19.019531 -16.25 18.171875 -17.523438 16.890625 -18.421875 C 15.609375 -19.316406 14.015625 -19.765625 12.109375 -19.765625 C 9.660156 -19.765625 7.679688 -18.875 6.171875 -17.09375 C 4.660156 -15.320312 3.90625 -12.992188 3.90625 -10.109375 C 3.90625 -7.222656 4.660156 -4.894531 6.171875 -3.125 C 7.679688 -1.363281 9.660156 -0.476562 12.109375 -0.46875 C 13.359375 -0.46875 14.546875 -0.6875 15.671875 -1.125 C 16.796875 -1.570312 17.785156 -2.1875 18.640625 -2.96875 L 18.640625 -8.09375 C 18.640625 -8.507812 18.507812 -8.828125 18.25 -9.046875 C 17.988281 -9.273438 17.625 -9.390625 17.15625 -9.390625 L 16.703125 -9.390625 L 16.703125 -9.671875 L 22.359375 -9.671875 L 22.359375 -9.390625 L 21.921875 -9.390625 C 21.441406 -9.390625 21.078125 -9.273438 20.828125 -9.046875 C 20.578125 -8.828125 20.460938 -8.507812 20.484375 -8.09375 L 20.484375 -3.328125 C 19.984375 -2.671875 19.382812 -2.082031 18.6875 -1.5625 C 18 -1.039062 17.070312 -0.582031 15.90625 -0.1875 C 14.738281 0.207031 13.472656 0.40625 12.109375 0.40625 Z M 12.109375 0.40625 "/></g></g></g><g fill="#ab8529" fill-opacity="1"><g transform="translate(202.91683, 173.430529)"><g><path d="M 15.796875 -0.28125 C 16.296875 -0.28125 16.722656 -0.457031 17.078125 -0.8125 C 17.441406 -1.175781 17.632812 -1.597656 17.65625 -2.078125 L 17.65625 -9.5625 L 5.828125 -9.5625 L 5.828125 -2.078125 C 5.828125 -1.578125 6.007812 -1.148438 6.375 -0.796875 C 6.75 -0.453125 7.1875 -0.28125 7.6875 -0.28125 L 8.0625 -0.28125 L 8.0625 0 L 1.734375 0 L 1.734375 -0.28125 L 2.109375 -0.28125 C 2.609375 -0.28125 3.035156 -0.453125 3.390625 -0.796875 C 3.742188 -1.148438 3.929688 -1.578125 3.953125 -2.078125 L 3.953125 -18.140625 C 3.929688 -18.640625 3.742188 -19.0625 3.390625 -19.40625 C 3.035156 -19.757812 2.609375 -19.9375 2.109375 -19.9375 L 1.734375 -19.9375 L 1.734375 -20.21875 L 8.0625 -20.21875 L 8.0625 -19.9375 L 7.6875 -19.9375 C 7.1875 -19.9375 6.753906 -19.757812 6.390625 -19.40625 C 6.035156 -19.0625 5.847656 -18.640625 5.828125 -18.140625 L 5.828125 -10.421875 L 17.65625 -10.421875 L 17.65625 -18.140625 C 17.632812 -18.835938 17.328125 -19.359375 16.734375 -19.703125 C 16.441406 -19.859375 16.128906 -19.9375 15.796875 -19.9375 L 15.421875 -19.9375 L 15.421875 -20.21875 L 21.75 -20.21875 L 21.75 -19.9375 L 21.375 -19.9375 C 20.875 -19.9375 20.445312 -19.753906 20.09375 -19.390625 C 19.738281 -19.035156 19.550781 -18.609375 19.53125 -18.109375 L 19.53125 -2.078125 C 19.550781 -1.578125 19.738281 -1.148438 20.09375 -0.796875 C 20.445312 -0.453125 20.875 -0.28125 21.375 -0.28125 L 21.75 -0.28125 L 21.75 0 L 15.421875 0 L 15.421875 -0.28125 Z M 15.796875 -0.28125 "/></g></g></g><g fill="#ab8529" fill-opacity="1"><g transform="translate(226.401372, 173.430529)"><g><path d="M 17.015625 -17.65625 C 17.015625 -18.113281 16.847656 -18.507812 16.515625 -18.84375 C 16.191406 -19.1875 15.8125 -19.367188 15.375 -19.390625 L 9.875 -19.390625 L 9.875 -2.078125 C 9.894531 -1.578125 10.082031 -1.148438 10.4375 -0.796875 C 10.800781 -0.453125 11.234375 -0.28125 11.734375 -0.28125 L 12.109375 -0.28125 L 12.109375 0 L 5.78125 0 L 5.78125 -0.28125 L 6.15625 -0.28125 C 6.65625 -0.28125 7.082031 -0.453125 7.4375 -0.796875 C 7.789062 -1.148438 7.976562 -1.566406 8 -2.046875 L 8 -19.390625 L 2.515625 -19.390625 C 2.046875 -19.367188 1.648438 -19.1875 1.328125 -18.84375 C 1.015625 -18.507812 0.859375 -18.113281 0.859375 -17.65625 L 0.859375 -17.15625 L 0.578125 -17.125 L 0.578125 -20.765625 C 0.867188 -20.648438 1.367188 -20.535156 2.078125 -20.421875 C 2.796875 -20.304688 3.453125 -20.25 4.046875 -20.25 L 13.8125 -20.25 C 14.75 -20.25 15.53125 -20.320312 16.15625 -20.46875 C 16.789062 -20.613281 17.175781 -20.710938 17.3125 -20.765625 L 17.3125 -17.125 L 17.015625 -17.15625 Z M 17.015625 -17.65625 "/></g></g></g></svg>