<svg xmlns="http://www.w3.org/2000/svg" xmlns:xlink="http://www.w3.org/1999/xlink" width="300" zoomAndPan="magnify" viewBox="0 0 224.87999 225" height="300" preserveAspectRatio="xMidYMid meet" version="1.0"><defs><g/><clipPath id="1c4d4cdbf5"><path d="M 136.273438 73.777344 L 202.238281 73.777344 L 202.238281 150.988281 L 136.273438 150.988281 Z M 136.273438 73.777344 " clip-rule="nonzero"/></clipPath></defs><g clip-path="url(#1c4d4cdbf5)"><path fill="#ab8529" d="M 197.992188 104.828125 C 197.863281 105.214844 197.609375 105.664062 197.289062 105.921875 C 196.921875 106.210938 196.515625 106.453125 196.097656 106.65625 C 195.265625 107.0625 194.367188 107.316406 193.464844 107.515625 C 193.222656 107.570312 192.890625 107.667969 192.648438 107.589844 C 192.433594 107.519531 192.265625 107.308594 192.144531 107.132812 C 191.761719 106.566406 191.535156 105.878906 191.546875 105.191406 C 191.550781 105.054688 191.558594 104.882812 191.582031 104.714844 C 191.609375 104.53125 191.65625 104.351562 191.742188 104.21875 C 191.898438 103.976562 192.25 103.894531 192.5 103.796875 C 193.40625 103.4375 194.359375 103.214844 195.324219 103.085938 C 195.691406 103.039062 196.050781 102.960938 196.417969 102.945312 C 196.753906 102.929688 197.058594 102.871094 197.375 103.046875 C 198.015625 103.40625 198.222656 104.148438 197.992188 104.828125 Z M 194.09375 101.625 C 193.222656 101.578125 192.351562 101.589844 191.480469 101.65625 C 189.53125 101.808594 187.707031 102.332031 185.992188 103.15625 C 182.082031 105.035156 177.945312 105.671875 173.671875 105.683594 C 173.601562 105.683594 173.535156 105.683594 173.464844 105.679688 C 172.3125 105.628906 171.949219 105.304688 171.976562 104.214844 C 171.992188 103.648438 172.011719 103.085938 172.023438 102.519531 C 172.027344 102.191406 171.9375 101.773438 172.003906 101.425781 C 172.019531 101.347656 172.042969 101.269531 172.078125 101.199219 C 172.207031 100.941406 172.488281 100.792969 172.769531 100.734375 C 173.183594 100.648438 173.625 100.617188 174.042969 100.558594 C 174.554688 100.484375 175.074219 100.441406 175.589844 100.410156 C 176.609375 100.351562 186.5625 99.625 187.097656 99.597656 C 187.597656 99.574219 194.195312 99.34375 195.398438 99.46875 C 195.613281 99.492188 195.839844 99.519531 196.023438 99.636719 C 196.328125 99.835938 196.394531 100.210938 196.441406 100.542969 C 196.511719 101.003906 196.457031 101.515625 196.449219 101.980469 C 196.292969 101.867188 196.09375 101.886719 195.921875 101.828125 C 195.742188 101.769531 195.554688 101.757812 195.367188 101.734375 C 194.945312 101.683594 194.519531 101.648438 194.09375 101.625 Z M 169.710938 100.25 C 169.050781 100.316406 166.933594 99.632812 167.820312 98.738281 C 170.738281 95.777344 172.3125 91.539062 172.03125 87.390625 C 171.957031 86.316406 171.449219 85.339844 171.449219 84.261719 C 171.445312 83.449219 171.90625 82.417969 172.207031 81.675781 C 172.675781 80.519531 173.152344 78.492188 174.183594 77.753906 C 175.289062 76.957031 176.460938 76.257812 177.601562 75.511719 C 178.113281 75.175781 178.71875 74.933594 179.328125 74.859375 C 179.808594 74.800781 180.566406 74.777344 180.996094 75.121094 C 181.105469 75.207031 181.191406 75.316406 181.25 75.453125 C 181.546875 76.171875 180.894531 77.519531 180.628906 78.179688 C 179.636719 80.644531 178.628906 83.109375 177.5625 85.546875 C 175.886719 89.390625 174.21875 93.167969 172.570312 97.015625 C 172.015625 98.308594 171.328125 100.09375 169.710938 100.25 Z M 171.246094 101.148438 C 170.984375 102.519531 171.0625 104.007812 171.203125 105.390625 C 171.214844 105.503906 171.226562 105.621094 171.179688 105.722656 C 171.089844 105.917969 170.667969 105.882812 170.480469 105.910156 C 170.023438 105.96875 169.5625 105.992188 169.101562 106.050781 C 168.390625 106.144531 167.679688 106.246094 166.976562 106.386719 C 165.804688 106.621094 164.65625 106.972656 163.4375 107.289062 C 163.246094 105.503906 163.492188 103.941406 164.589844 102.601562 C 165.269531 101.765625 165.558594 100.632812 166.625 99.992188 C 166.761719 99.910156 167.046875 100.300781 167.128906 100.367188 C 167.339844 100.550781 167.609375 100.671875 167.863281 100.792969 C 168.339844 101.015625 168.902344 101.253906 169.441406 101.25 C 170.027344 101.242188 170.660156 100.953125 171.257812 101 C 171.257812 101.050781 171.253906 101.101562 171.246094 101.148438 Z M 181.789062 84.433594 C 182.476562 84.660156 182.691406 85.226562 182.355469 85.90625 C 181.6875 87.25 180.898438 88.519531 179.707031 89.46875 C 178.808594 90.183594 177.839844 90.800781 176.621094 91.414062 C 176.621094 90.984375 176.550781 90.71875 176.632812 90.519531 C 177.539062 88.332031 178.472656 86.152344 179.457031 83.828125 C 180.359375 84.054688 181.089844 84.199219 181.789062 84.433594 Z M 180.175781 93.5 C 180.816406 94.1875 181.472656 94.855469 182.191406 95.605469 C 180.417969 95.964844 179.03125 96.816406 177.640625 97.652344 C 176.941406 98.070312 176.253906 98.515625 175.53125 98.882812 C 174.511719 99.398438 174.273438 99.410156 172.761719 99.351562 C 172.988281 97.339844 173.957031 95.617188 175.03125 94.007812 C 175.609375 93.140625 176.742188 92.738281 177.835938 92.554688 C 178.800781 92.390625 179.539062 92.820312 180.175781 93.5 Z M 182.792969 96.257812 C 182.722656 96.457031 182.824219 96.683594 182.984375 96.816406 C 183.148438 96.949219 183.355469 97.011719 183.5625 97.058594 C 183.984375 97.160156 184.414062 97.222656 184.847656 97.246094 C 184.90625 97.25 184.964844 97.253906 185.023438 97.257812 C 185.332031 97.265625 185.871094 97.246094 186.03125 96.925781 C 186.078125 96.832031 186.132812 96.722656 186.238281 96.707031 C 186.300781 96.699219 186.363281 96.730469 186.421875 96.765625 C 186.773438 96.96875 187.105469 97.167969 187.480469 97.308594 C 187.699219 97.386719 187.917969 97.472656 188.132812 97.5625 C 188.457031 97.699219 188.722656 97.910156 189.011719 98.113281 C 189.070312 98.15625 189.136719 98.210938 189.128906 98.285156 C 189.117188 98.375 189.003906 98.402344 188.914062 98.410156 C 188.28125 98.460938 187.652344 98.425781 187.011719 98.460938 C 186.285156 98.5 185.558594 98.554688 184.828125 98.617188 C 183.375 98.738281 181.921875 98.894531 180.472656 99.066406 C 179.886719 99.132812 179.273438 99.265625 178.679688 99.28125 C 178.171875 99.292969 177.664062 99.417969 177.148438 99.457031 C 177.089844 99.460938 177.015625 99.445312 177.015625 99.386719 C 177.015625 99.363281 177.03125 99.34375 177.050781 99.324219 C 177.617188 98.691406 178.355469 98.269531 179.058594 97.789062 C 179.449219 97.527344 179.84375 97.257812 180.265625 97.046875 C 180.480469 96.941406 180.71875 96.820312 180.953125 96.769531 C 181.582031 96.632812 182.152344 96.347656 182.792969 96.257812 Z M 183.59375 95.539062 C 183.851562 94.578125 184.167969 93.632812 184.539062 92.710938 C 184.738281 92.214844 184.859375 91.679688 185.082031 91.195312 C 185.277344 90.765625 185.339844 90.273438 185.558594 89.847656 C 185.84375 89.289062 186.804688 89.195312 187.1875 89.71875 C 187.28125 89.84375 187.320312 90.007812 187.324219 90.167969 C 187.324219 90.179688 187.324219 90.195312 187.324219 90.207031 C 187.316406 90.597656 187.136719 90.957031 187.015625 91.324219 C 186.898438 91.6875 186.777344 92.050781 186.65625 92.414062 C 186.234375 93.699219 185.8125 94.988281 185.261719 96.222656 C 185.21875 96.316406 185.171875 96.414062 185.09375 96.484375 C 184.863281 96.699219 184.292969 96.496094 184.039062 96.417969 C 183.863281 96.363281 183.675781 96.28125 183.589844 96.117188 C 183.496094 95.941406 183.542969 95.730469 183.59375 95.539062 Z M 187.121094 88.753906 C 187.152344 88.617188 187.191406 88.480469 187.226562 88.34375 C 187.277344 88.144531 187.300781 87.9375 187.34375 87.734375 C 187.386719 87.539062 187.464844 87.339844 187.449219 87.136719 C 187.210938 87.335938 187.144531 87.644531 187.011719 87.910156 C 186.917969 88.089844 186.84375 88.292969 186.738281 88.476562 C 186.730469 88.492188 186.714844 88.515625 186.695312 88.511719 C 186.671875 88.511719 186.660156 88.488281 186.652344 88.46875 C 186.414062 87.832031 186.195312 87.179688 186.082031 86.511719 C 186.082031 86.496094 186.078125 86.480469 186.085938 86.46875 C 186.097656 86.457031 186.113281 86.453125 186.128906 86.449219 C 186.261719 86.429688 186.390625 86.410156 186.523438 86.386719 C 186.839844 86.332031 187.160156 86.269531 187.484375 86.234375 C 187.578125 86.222656 187.679688 86.207031 187.769531 86.238281 C 187.972656 86.300781 188.105469 86.523438 188.234375 86.675781 C 188.347656 86.8125 188.460938 86.945312 188.574219 87.078125 C 188.675781 87.203125 188.75 87.335938 188.84375 87.464844 C 188.757812 87.542969 188.414062 87.84375 188.320312 87.917969 C 188.191406 88.019531 187.128906 88.707031 187.121094 88.753906 Z M 169.285156 88.351562 C 169.027344 89.230469 168.601562 90.0625 168.03125 90.777344 C 167.691406 91.210938 167.242188 91.628906 166.691406 91.652344 C 166.242188 91.671875 165.828125 91.425781 165.449219 91.183594 C 165.074219 90.949219 164.695312 90.710938 164.410156 90.375 C 164.210938 90.140625 164.058594 89.855469 164.019531 89.546875 C 164.007812 89.457031 164.003906 89.378906 164.007812 89.304688 C 164.019531 89.105469 164.09375 88.945312 164.242188 88.757812 C 165.011719 87.8125 165.78125 86.863281 166.578125 85.941406 C 166.941406 85.515625 167.328125 85.085938 167.84375 84.871094 C 168.359375 84.65625 169.039062 84.730469 169.363281 85.183594 C 169.460938 85.324219 169.519531 85.480469 169.550781 85.644531 C 169.714844 86.5 169.53125 87.527344 169.285156 88.351562 Z M 201.386719 105.976562 C 201.003906 105.523438 200.617188 105.066406 200.183594 104.660156 C 199.972656 104.464844 199.75 104.28125 199.511719 104.117188 C 199.402344 104.042969 198.785156 103.816406 198.769531 103.734375 C 198.6875 103.300781 198.441406 102.90625 198.089844 102.644531 C 197.949219 102.539062 197.8125 102.433594 197.671875 102.335938 C 197.660156 102.324219 197.382812 102.144531 197.382812 102.175781 C 197.367188 101.4375 197.351562 100.695312 197.332031 99.957031 C 197.328125 99.773438 197.324219 99.585938 197.265625 99.414062 C 196.988281 98.632812 195.816406 98.703125 195.15625 98.625 C 193.191406 98.390625 191.21875 98.21875 189.527344 96.980469 C 188.988281 96.585938 188.28125 96.421875 187.667969 96.117188 C 187.257812 95.910156 186.878906 95.636719 186.378906 95.328125 C 186.722656 94.289062 187.054688 93.25 187.410156 92.214844 C 187.539062 91.835938 187.6875 91.46875 187.792969 91.082031 C 187.890625 90.730469 187.972656 90.355469 187.949219 89.988281 C 187.9375 89.792969 187.890625 89.652344 187.746094 89.507812 C 187.675781 89.4375 187.589844 89.375 187.5 89.328125 C 187.46875 89.308594 187.25 89.199219 187.222656 89.230469 C 187.46875 88.964844 187.773438 88.761719 188.058594 88.542969 C 188.273438 88.378906 188.480469 88.214844 188.683594 88.046875 C 188.851562 87.90625 189.085938 87.777344 189.175781 87.570312 C 189.230469 87.410156 189.101562 87.203125 189.011719 87.085938 C 188.832031 86.863281 188.644531 86.648438 188.472656 86.421875 C 188.324219 86.226562 188.21875 86.003906 187.980469 85.894531 C 187.773438 85.792969 187.53125 85.8125 187.304688 85.835938 C 186.878906 85.882812 186.457031 85.945312 186.039062 86.027344 C 185.914062 86.050781 185.796875 86.117188 185.777344 86.257812 C 185.765625 86.320312 185.78125 86.386719 185.796875 86.449219 C 185.902344 86.898438 186.003906 87.34375 186.109375 87.789062 C 186.207031 88.195312 186.28125 88.601562 186.386719 89.007812 C 186.378906 88.976562 186.160156 88.925781 186.125 88.914062 C 186.03125 88.886719 185.957031 88.871094 185.863281 88.878906 C 185.636719 88.898438 185.4375 89.046875 185.300781 89.226562 C 185.160156 89.40625 185.074219 89.621094 184.992188 89.832031 C 184.808594 90.300781 184.597656 90.761719 184.421875 91.230469 C 184.125 92.015625 183.828125 92.769531 183.578125 93.578125 C 183.4375 94.019531 183.476562 94.410156 182.9375 94.277344 C 182.558594 94.1875 182.25 93.65625 181.972656 93.414062 C 181.738281 93.207031 179.371094 90.9375 179.144531 91.113281 C 179.472656 90.855469 179.730469 90.636719 179.996094 90.4375 C 181.519531 89.296875 182.558594 87.792969 183.289062 86.058594 C 183.890625 84.628906 183.554688 83.878906 182.074219 83.417969 C 181.363281 83.195312 180.636719 83.035156 179.847656 82.828125 C 179.949219 82.476562 179.996094 82.210938 180.097656 81.96875 C 180.675781 80.578125 181.257812 79.191406 181.855469 77.808594 C 182.242188 76.910156 182.457031 75.988281 182.339844 75.007812 C 182.273438 74.421875 181.867188 73.964844 181.285156 73.917969 C 180.054688 73.816406 178.851562 73.785156 177.667969 74.355469 C 176.355469 74.992188 175.238281 75.878906 174.070312 76.710938 C 173.738281 76.949219 173.386719 77.382812 173.058594 77.371094 C 171.925781 77.332031 171.167969 78.097656 170.230469 78.457031 C 169.542969 78.71875 168.78125 78.808594 168.042969 78.910156 C 166.890625 79.070312 165.710938 79.078125 164.582031 79.328125 C 163.605469 79.542969 162.617188 79.820312 161.773438 80.375 C 161.339844 80.65625 160.984375 81.003906 160.660156 81.402344 C 160.355469 81.773438 160.109375 82.171875 159.742188 82.488281 C 159.394531 82.785156 159.105469 83.1875 158.804688 83.527344 C 158.164062 84.242188 157.527344 84.960938 156.886719 85.679688 C 155.386719 87.371094 153.929688 89.097656 152.378906 90.738281 C 150.5 92.726562 148.371094 94.460938 146.734375 96.691406 C 145.984375 97.71875 145.367188 98.757812 145.292969 100.027344 C 145.144531 102.566406 144.519531 105.027344 144.0625 107.515625 C 143.632812 109.867188 143.296875 112.238281 142.796875 114.574219 C 142.148438 117.582031 141.390625 120.5625 140.660156 123.550781 C 140.058594 126.011719 139.351562 128.4375 138.328125 130.761719 C 138.21875 131.007812 138.144531 131.277344 138.105469 131.542969 C 138.089844 131.636719 138.203125 131.804688 138.300781 131.847656 C 138.398438 131.890625 138.59375 131.871094 138.664062 131.796875 C 138.84375 131.601562 139.035156 131.382812 139.128906 131.136719 C 139.835938 129.289062 140.621094 127.457031 141.183594 125.5625 C 141.839844 123.335938 142.304688 121.050781 142.84375 118.789062 C 143.355469 116.65625 144.042969 114.550781 144.320312 112.390625 C 144.867188 108.109375 146.03125 103.945312 146.527344 99.660156 C 146.617188 98.882812 146.945312 98.023438 147.429688 97.417969 C 148.628906 95.933594 149.757812 94.378906 151.246094 93.132812 C 152.398438 92.167969 153.511719 91.125 154.480469 89.984375 C 156.339844 87.789062 158.109375 85.523438 160.269531 83.605469 C 160.667969 83.25 160.964844 82.773438 161.285156 82.335938 C 162 81.367188 162.863281 80.625 164.101562 80.449219 C 165.179688 80.296875 166.261719 80.109375 167.347656 80.054688 C 168.207031 80.011719 169.078125 79.941406 169.902344 79.664062 C 170.25 79.550781 170.597656 79.449219 170.917969 79.273438 C 171.335938 79.042969 171.753906 78.8125 172.171875 78.582031 C 172.25 78.535156 172.363281 78.496094 172.421875 78.566406 C 172.472656 78.625 172.445312 78.714844 172.414062 78.785156 C 172.25 79.160156 172.089844 79.53125 171.9375 79.914062 C 171.746094 80.394531 171.554688 80.859375 171.394531 81.355469 C 171.066406 82.351562 170.703125 83.347656 170.207031 84.277344 C 170.167969 84.351562 170.117188 84.433594 170.035156 84.441406 C 169.953125 84.449219 169.886719 84.382812 169.824219 84.328125 C 169.492188 84.019531 168.984375 83.972656 168.550781 84.09375 C 167.382812 84.414062 166.386719 85.460938 165.585938 86.316406 C 164.980469 86.957031 164.460938 87.738281 163.78125 88.292969 C 163.066406 88.878906 162.453125 89.695312 161.875 90.414062 C 161.261719 91.175781 160.699219 91.980469 160.253906 92.847656 C 158.835938 95.625 156.726562 97.875 154.730469 100.214844 C 154.503906 100.476562 154.222656 100.667969 153.964844 100.898438 C 153.777344 101.066406 153.664062 101.28125 153.484375 101.453125 C 152.949219 101.976562 152.320312 102.421875 151.761719 102.921875 C 151.433594 103.214844 151.121094 103.527344 150.789062 103.820312 C 150.53125 104.042969 150.253906 104.234375 150.074219 104.53125 C 149.992188 104.664062 150.6875 104.632812 150.726562 104.621094 C 151.003906 104.546875 151.222656 104.394531 151.441406 104.230469 C 152.226562 103.648438 152.957031 103.027344 153.695312 102.398438 C 155.039062 101.253906 156.320312 100.023438 157.378906 98.605469 C 157.875 97.941406 158.386719 97.285156 158.886719 96.625 C 159.359375 96.007812 159.957031 95.359375 160.285156 94.65625 C 160.925781 93.285156 161.523438 91.867188 162.496094 90.691406 C 162.664062 90.492188 162.871094 90.292969 163.128906 90.273438 C 163.566406 90.242188 163.820312 90.664062 164.078125 90.9375 C 164.375 91.25 164.75 91.519531 165.117188 91.738281 C 165.800781 92.152344 166.664062 92.457031 167.457031 92.1875 C 168.058594 91.984375 168.503906 91.472656 168.871094 90.953125 C 169.355469 90.257812 169.785156 89.5 170.066406 88.699219 C 170.332031 87.957031 170.371094 87.128906 170.402344 86.347656 C 170.40625 86.246094 170.429688 85.632812 170.6875 85.871094 C 170.71875 85.898438 170.734375 85.941406 170.746094 85.980469 C 171.53125 88.273438 171.210938 90.847656 170.253906 93.074219 C 169.558594 94.691406 168.546875 96.152344 167.410156 97.488281 C 166.886719 98.101562 166.234375 98.636719 165.742188 99.257812 C 165.148438 100.011719 164.582031 100.792969 164.007812 101.566406 C 162.882812 103.074219 162.101562 104.722656 162.164062 106.675781 C 162.179688 107.210938 162.050781 107.746094 161.988281 108.265625 C 161.457031 108.597656 161.007812 108.914062 160.527344 109.171875 C 158.980469 110.003906 157.777344 111.195312 156.867188 112.6875 C 155.589844 114.78125 154.339844 116.894531 153.058594 118.988281 C 151.773438 121.089844 150.503906 123.199219 148.386719 124.640625 C 147.601562 125.171875 146.914062 125.871094 146.257812 126.566406 C 144.609375 128.308594 142.9375 130.035156 141.40625 131.875 C 139.792969 133.824219 138.324219 135.890625 136.816406 137.925781 C 136.648438 138.152344 136.3125 138.421875 136.636719 138.863281 C 137.417969 138.375 137.902344 137.625 138.460938 136.949219 C 139.8125 135.3125 141.09375 133.613281 142.519531 132.042969 C 144.492188 129.863281 146.28125 127.5 148.640625 125.6875 C 150.179688 124.496094 151.425781 123.175781 152.566406 121.609375 C 153.261719 120.65625 153.980469 119.828125 154.574219 118.804688 C 155.128906 117.847656 155.570312 116.855469 156.097656 115.878906 C 157.242188 113.761719 158.511719 111.71875 160.570312 110.34375 C 161.476562 109.738281 162.445312 109.21875 163.402344 108.691406 C 165.046875 107.785156 166.8125 107.3125 168.699219 107.246094 C 169.582031 107.214844 170.457031 107.019531 171.34375 106.960938 C 172.902344 106.859375 174.46875 106.757812 176.03125 106.742188 C 177.386719 106.730469 181.773438 105.949219 183.0625 105.441406 C 184.90625 104.710938 186.75 103.976562 188.625 103.332031 C 189.335938 103.085938 190.078125 102.984375 190.800781 102.796875 C 191.308594 102.664062 191.828125 102.578125 192.351562 102.546875 C 192.6875 102.527344 193.074219 102.5 193.410156 102.542969 C 193.726562 102.585938 194.046875 102.679688 194.367188 102.734375 C 193.828125 102.976562 193.183594 102.980469 192.621094 103.175781 C 192.324219 103.277344 192.023438 103.382812 191.746094 103.539062 C 191.414062 103.726562 191.050781 104.132812 190.941406 104.503906 C 190.84375 104.851562 190.902344 105.300781 190.957031 105.652344 C 191.066406 106.359375 191.265625 107.199219 191.664062 107.800781 C 192.007812 108.320312 192.519531 108.59375 193.136719 108.53125 C 193.636719 108.480469 194.121094 108.335938 194.589844 108.171875 C 195.328125 107.90625 196.050781 107.59375 196.746094 107.230469 C 196.71875 107.484375 196.566406 107.691406 196.378906 107.871094 C 196.292969 107.949219 196.203125 108.019531 196.113281 108.089844 C 194.6875 109.152344 192.925781 109.867188 191.214844 110.332031 C 189.898438 110.691406 188.558594 110.980469 187.230469 111.304688 C 184.175781 112.046875 181.0625 112.539062 178.046875 113.476562 C 177.316406 113.703125 176.589844 113.949219 175.890625 114.261719 C 175.019531 114.65625 174.632812 114.90625 174.210938 115.753906 C 174.175781 115.824219 174.140625 115.90625 174.164062 115.980469 C 174.199219 116.070312 174.3125 116.109375 174.40625 116.089844 C 174.5 116.070312 174.582031 116.011719 174.65625 115.953125 C 175.101562 115.625 175.605469 115.371094 176.136719 115.207031 C 176.710938 115.03125 176.984375 114.792969 177.578125 114.625 C 179.027344 114.214844 180.472656 113.785156 181.933594 113.4375 C 185.128906 112.679688 188.332031 111.957031 191.535156 111.234375 C 191.5625 111.230469 191.59375 111.222656 191.621094 111.214844 C 192.554688 110.996094 193.460938 110.671875 194.304688 110.214844 C 195.140625 109.765625 195.988281 109.328125 196.722656 108.71875 C 197.269531 108.261719 197.730469 107.710938 198.089844 107.101562 C 198.269531 106.796875 198.425781 106.476562 198.550781 106.144531 C 198.664062 105.84375 198.707031 105.503906 198.890625 105.246094 C 199.410156 105.492188 199.933594 105.949219 200.3125 106.378906 C 201.269531 107.453125 201.125 108.773438 200.621094 110.03125 C 199.914062 111.804688 198.570312 113.078125 197.214844 114.339844 C 196.867188 114.664062 196.464844 114.933594 196.128906 115.269531 C 194.832031 116.589844 194.136719 118.207031 193.925781 120.027344 C 193.660156 122.3125 192.511719 123.976562 190.519531 125.089844 C 190.339844 125.191406 190.175781 125.320312 189.992188 125.410156 C 188.929688 125.9375 188.03125 126.667969 187.378906 127.664062 C 186.503906 129.007812 185.1875 129.679688 183.71875 130.132812 C 183.191406 130.292969 182.671875 130.472656 182.140625 130.597656 C 177.738281 131.597656 173.34375 132.609375 168.933594 133.574219 C 166.105469 134.191406 163.644531 135.378906 161.855469 137.738281 C 161.152344 138.667969 160.433594 139.582031 159.75 140.527344 C 159.515625 140.851562 159.359375 141.238281 159.195312 141.609375 C 157.9375 144.421875 156.6875 147.234375 155.4375 150.046875 C 155.273438 150.410156 154.992188 150.75 155.277344 151.234375 C 155.4375 151.195312 155.691406 151.214844 155.777344 151.101562 C 156.148438 150.617188 156.535156 150.125 156.800781 149.578125 C 157.757812 147.609375 158.820312 145.667969 159.550781 143.617188 C 160.28125 141.5625 161.476562 139.859375 162.769531 138.171875 C 164.035156 136.523438 165.753906 135.558594 167.675781 134.957031 C 169.171875 134.488281 170.71875 134.164062 172.253906 133.820312 C 174.527344 133.308594 176.816406 132.882812 179.082031 132.335938 C 181.070312 131.855469 183.125 131.675781 185.042969 130.847656 C 186.339844 130.289062 187.46875 129.617188 188.222656 128.398438 C 188.78125 127.496094 189.59375 126.929688 190.523438 126.421875 C 193.035156 125.046875 194.914062 123.148438 195.15625 120.082031 C 195.164062 119.949219 195.214844 119.816406 195.242188 119.683594 C 195.597656 117.792969 196.527344 116.273438 198.007812 115.019531 C 198.996094 114.183594 199.855469 113.191406 200.710938 112.214844 C 201.492188 111.320312 201.886719 110.210938 202.117188 109.058594 C 202.34375 107.929688 202.15625 106.882812 201.386719 105.976562 " fill-opacity="1" fill-rule="nonzero"/></g><g fill="#ab8529" fill-opacity="1"><g transform="translate(110.131048, 115.063721)"><g><path d="M 6.71875 -3.5625 C 6.90625 -3.757812 7.066406 -3.835938 7.203125 -3.796875 C 7.347656 -3.753906 7.4375 -3.644531 7.46875 -3.46875 C 7.507812 -3.300781 7.460938 -3.113281 7.328125 -2.90625 C 7.046875 -2.488281 6.65625 -2.046875 6.15625 -1.578125 C 5.65625 -1.109375 5.113281 -0.695312 4.53125 -0.34375 C 3.945312 0 3.394531 0.1875 2.875 0.21875 C 1.820312 0.269531 1.328125 -0.234375 1.390625 -1.296875 C 1.398438 -1.429688 1.429688 -1.617188 1.484375 -1.859375 C 1.523438 -2.085938 1.554688 -2.3125 1.578125 -2.53125 C 1.609375 -2.75 1.597656 -2.894531 1.546875 -2.96875 C 1.472656 -3.03125 1.390625 -3.0625 1.296875 -3.0625 C 1.210938 -3.0625 1.125 -3.050781 1.03125 -3.03125 C 0.914062 -3.007812 0.8125 -3.003906 0.71875 -3.015625 C 0.207031 -3.078125 -0.0546875 -3.34375 -0.078125 -3.8125 C -0.0859375 -4.46875 0.03125 -5.09375 0.28125 -5.6875 C 0.363281 -5.875 0.515625 -6 0.734375 -6.0625 C 0.953125 -6.125 1.15625 -6.097656 1.34375 -5.984375 C 1.46875 -5.910156 1.523438 -5.8125 1.515625 -5.6875 C 1.492188 -5.5 1.457031 -5.316406 1.40625 -5.140625 C 1.382812 -5.066406 1.367188 -4.988281 1.359375 -4.90625 C 1.265625 -4.445312 1.265625 -4.207031 1.359375 -4.1875 C 1.460938 -4.164062 1.679688 -4.289062 2.015625 -4.5625 C 2.253906 -4.738281 2.523438 -4.8125 2.828125 -4.78125 C 3.222656 -4.75 3.382812 -4.523438 3.3125 -4.109375 C 3.238281 -3.835938 3.171875 -3.554688 3.109375 -3.265625 C 2.953125 -2.679688 2.832031 -2.085938 2.75 -1.484375 C 2.726562 -1.078125 2.800781 -0.835938 2.96875 -0.765625 C 3.144531 -0.703125 3.378906 -0.742188 3.671875 -0.890625 C 3.972656 -1.046875 4.285156 -1.25 4.609375 -1.5 C 4.929688 -1.757812 5.21875 -2.007812 5.46875 -2.25 C 5.71875 -2.5 5.890625 -2.675781 5.984375 -2.78125 C 6.023438 -2.84375 6.09375 -2.921875 6.1875 -3.015625 C 6.28125 -3.117188 6.378906 -3.21875 6.484375 -3.3125 C 6.585938 -3.425781 6.664062 -3.507812 6.71875 -3.5625 Z M 6.71875 -3.5625 "/></g></g></g><g fill="#ab8529" fill-opacity="1"><g transform="translate(116.648141, 115.063721)"><g><path d="M 5.5 -3.78125 C 5.5625 -3.75 5.585938 -3.691406 5.578125 -3.609375 C 5.578125 -3.523438 5.554688 -3.453125 5.515625 -3.390625 C 5.171875 -2.878906 4.800781 -2.425781 4.40625 -2.03125 C 4.019531 -1.632812 3.585938 -1.335938 3.109375 -1.140625 C 2.640625 -0.953125 2.101562 -0.898438 1.5 -0.984375 C 1.09375 -1.054688 0.785156 -1.195312 0.578125 -1.40625 C 0.367188 -1.613281 0.210938 -1.910156 0.109375 -2.296875 C -0.0546875 -2.910156 -0.09375 -3.539062 0 -4.1875 C 0.0703125 -4.5625 0.300781 -4.753906 0.6875 -4.765625 C 1.039062 -4.765625 1.234375 -4.609375 1.265625 -4.296875 C 1.273438 -4.035156 1.273438 -3.78125 1.265625 -3.53125 C 1.265625 -3.5 1.265625 -3.46875 1.265625 -3.4375 C 1.242188 -2.75 1.351562 -2.273438 1.59375 -2.015625 C 1.84375 -1.765625 2.160156 -1.695312 2.546875 -1.8125 C 2.941406 -1.9375 3.363281 -2.21875 3.8125 -2.65625 C 3.863281 -2.707031 3.929688 -2.78125 4.015625 -2.875 C 4.097656 -2.96875 4.191406 -3.066406 4.296875 -3.171875 C 4.429688 -3.316406 4.546875 -3.4375 4.640625 -3.53125 C 4.910156 -3.8125 5.195312 -3.894531 5.5 -3.78125 Z M 0.59375 -5.875 C 0.289062 -5.894531 0.113281 -6.0625 0.0625 -6.375 C 0.03125 -6.613281 0.0703125 -6.84375 0.1875 -7.0625 C 0.28125 -7.257812 0.441406 -7.390625 0.671875 -7.453125 C 0.898438 -7.523438 1.113281 -7.507812 1.3125 -7.40625 C 1.382812 -7.363281 1.4375 -7.304688 1.46875 -7.234375 C 1.507812 -7.160156 1.523438 -7.097656 1.515625 -7.046875 C 1.503906 -6.253906 1.195312 -5.863281 0.59375 -5.875 Z M 0.59375 -5.875 "/></g></g></g><g fill="#ab8529" fill-opacity="1"><g transform="translate(121.277316, 115.063721)"><g><path d="M 9.96875 -3.546875 C 9.96875 -3.546875 9.972656 -3.546875 9.984375 -3.546875 C 10.035156 -3.535156 10.085938 -3.515625 10.140625 -3.484375 C 10.203125 -3.460938 10.238281 -3.410156 10.25 -3.328125 C 10.28125 -3.191406 10.242188 -3.082031 10.140625 -3 C 9.679688 -2.675781 9.191406 -2.425781 8.671875 -2.25 C 8.203125 -2.101562 7.726562 -2.007812 7.25 -1.96875 C 6.78125 -1.925781 6.300781 -1.925781 5.8125 -1.96875 C 5.1875 -2.03125 4.679688 -2.332031 4.296875 -2.875 C 4.171875 -3.039062 4.046875 -3.207031 3.921875 -3.375 C 3.796875 -3.539062 3.671875 -3.707031 3.546875 -3.875 C 3.429688 -4.019531 3.289062 -4.039062 3.125 -3.9375 C 2.925781 -3.789062 2.742188 -3.625 2.578125 -3.4375 C 2.421875 -3.257812 2.269531 -3.070312 2.125 -2.875 C 2.113281 -2.84375 2.101562 -2.816406 2.09375 -2.796875 C 2.039062 -2.734375 1.984375 -2.660156 1.921875 -2.578125 C 1.859375 -2.460938 1.785156 -2.351562 1.703125 -2.25 C 1.554688 -2.082031 1.363281 -1.972656 1.125 -1.921875 C 0.894531 -1.878906 0.675781 -1.898438 0.46875 -1.984375 C 0.3125 -2.066406 0.210938 -2.179688 0.171875 -2.328125 C 0.0234375 -2.898438 -0.0625 -3.472656 -0.09375 -4.046875 C -0.09375 -4.359375 0.046875 -4.539062 0.328125 -4.59375 C 0.660156 -4.675781 0.898438 -4.570312 1.046875 -4.28125 C 1.066406 -4.238281 1.082031 -4.179688 1.09375 -4.109375 C 1.113281 -4.046875 1.132812 -3.984375 1.15625 -3.921875 C 1.1875 -3.859375 1.238281 -3.804688 1.3125 -3.765625 C 1.40625 -3.835938 1.488281 -3.910156 1.5625 -3.984375 C 1.738281 -4.140625 1.910156 -4.289062 2.078125 -4.4375 C 2.273438 -4.601562 2.484375 -4.71875 2.703125 -4.78125 C 2.929688 -4.851562 3.171875 -4.890625 3.421875 -4.890625 C 4.015625 -4.890625 4.476562 -4.660156 4.8125 -4.203125 C 4.882812 -4.097656 4.953125 -4 5.015625 -3.90625 C 5.171875 -3.675781 5.332031 -3.457031 5.5 -3.25 C 5.769531 -2.90625 6.125 -2.726562 6.5625 -2.71875 C 7.019531 -2.695312 7.453125 -2.738281 7.859375 -2.84375 C 8.273438 -2.945312 8.679688 -3.101562 9.078125 -3.3125 C 9.085938 -3.320312 9.101562 -3.335938 9.125 -3.359375 C 9.257812 -3.429688 9.394531 -3.488281 9.53125 -3.53125 C 9.664062 -3.582031 9.8125 -3.585938 9.96875 -3.546875 Z M 9.96875 -3.546875 "/></g></g></g><g fill="#ab8529" fill-opacity="1"><g transform="translate(130.596079, 115.063721)"><g><path d="M 8.171875 -3.875 C 8.273438 -3.832031 8.332031 -3.757812 8.34375 -3.65625 C 8.351562 -3.550781 8.320312 -3.457031 8.25 -3.375 C 8.1875 -3.289062 8.097656 -3.191406 7.984375 -3.078125 C 7.867188 -2.960938 7.753906 -2.847656 7.640625 -2.734375 C 7.546875 -2.660156 7.472656 -2.59375 7.421875 -2.53125 C 6.398438 -1.507812 5.421875 -0.445312 4.484375 0.65625 C 4.367188 0.789062 4.269531 0.929688 4.1875 1.078125 C 4.113281 1.222656 4.066406 1.394531 4.046875 1.59375 C 3.960938 2.382812 3.8125 3.367188 3.59375 4.546875 C 3.375 5.722656 3.082031 6.875 2.71875 8 C 2.363281 9.125 1.945312 10.015625 1.46875 10.671875 C 1.101562 11.128906 0.628906 11.378906 0.046875 11.421875 C -0.859375 11.441406 -1.378906 11 -1.515625 10.09375 C -1.597656 9.207031 -1.472656 8.269531 -1.140625 7.28125 C -0.804688 6.300781 -0.363281 5.351562 0.1875 4.4375 C 0.75 3.519531 1.304688 2.742188 1.859375 2.109375 C 2.128906 1.753906 2.375 1.132812 2.59375 0.25 C 2.820312 -0.632812 2.960938 -1.398438 3.015625 -2.046875 C 3.046875 -2.378906 3.023438 -2.5625 2.953125 -2.59375 C 2.890625 -2.632812 2.769531 -2.597656 2.59375 -2.484375 C 2.4375 -2.398438 2.242188 -2.316406 2.015625 -2.234375 C 1.796875 -2.148438 1.535156 -2.113281 1.234375 -2.125 C 0.804688 -2.164062 0.492188 -2.320312 0.296875 -2.59375 C 0.109375 -2.875 0.0078125 -3.195312 0 -3.5625 C 0 -3.9375 0.0625 -4.28125 0.1875 -4.59375 C 0.332031 -4.90625 0.519531 -5.191406 0.75 -5.453125 C 0.988281 -5.722656 1.25 -5.960938 1.53125 -6.171875 C 1.988281 -6.503906 2.472656 -6.570312 2.984375 -6.375 C 3.066406 -6.34375 3.128906 -6.296875 3.171875 -6.234375 C 3.222656 -6.171875 3.242188 -6.097656 3.234375 -6.015625 C 3.222656 -5.929688 3.191406 -5.867188 3.140625 -5.828125 C 3.097656 -5.796875 3.039062 -5.773438 2.96875 -5.765625 C 2.53125 -5.597656 2.175781 -5.3125 1.90625 -4.90625 C 1.632812 -4.507812 1.460938 -4.125 1.390625 -3.75 C 1.328125 -3.375 1.382812 -3.140625 1.5625 -3.046875 C 1.6875 -3.023438 1.84375 -3.082031 2.03125 -3.21875 C 2.226562 -3.363281 2.414062 -3.53125 2.59375 -3.71875 C 2.769531 -3.90625 2.894531 -4.039062 2.96875 -4.125 C 3.21875 -4.457031 3.550781 -4.617188 3.96875 -4.609375 C 4.445312 -4.597656 4.6875 -4.363281 4.6875 -3.90625 C 4.675781 -3.59375 4.640625 -3.253906 4.578125 -2.890625 C 4.515625 -2.441406 4.484375 -2.046875 4.484375 -1.703125 C 4.523438 -1.378906 4.6875 -1.3125 4.96875 -1.5 C 5.257812 -1.6875 5.65625 -2.007812 6.15625 -2.46875 C 6.445312 -2.726562 6.71875 -2.96875 6.96875 -3.1875 C 7.21875 -3.414062 7.429688 -3.597656 7.609375 -3.734375 C 7.796875 -3.867188 7.984375 -3.914062 8.171875 -3.875 Z M 1 9.0625 C 1.238281 8.394531 1.519531 7.445312 1.84375 6.21875 C 2.175781 5 2.367188 4.046875 2.421875 3.359375 C 2.242188 3.648438 2.109375 3.847656 2.015625 3.953125 C 1.960938 4.015625 1.925781 4.066406 1.90625 4.109375 C 1.414062 4.867188 0.972656 5.65625 0.578125 6.46875 C 0.304688 7.039062 0.0976562 7.597656 -0.046875 8.140625 C -0.191406 8.691406 -0.257812 9.285156 -0.25 9.921875 C -0.25 10.179688 -0.21875 10.367188 -0.15625 10.484375 C -0.101562 10.597656 -0.015625 10.59375 0.109375 10.46875 C 0.492188 10.050781 0.789062 9.582031 1 9.0625 Z M 1 9.0625 "/></g></g></g><g fill="#ab8529" fill-opacity="1"><g transform="translate(45.40026, 104.062828)"><g><path d="M -1 -8.6875 C -1.363281 -9.113281 -1.546875 -9.535156 -1.546875 -9.953125 C -1.546875 -10.378906 -1.445312 -10.742188 -1.25 -11.046875 C -1.050781 -11.347656 -0.734375 -11.601562 -0.296875 -11.8125 C 0.140625 -12.03125 0.632812 -12.140625 1.1875 -12.140625 L 8.296875 -12.140625 C 8.648438 -12.140625 9.046875 -12.175781 9.484375 -12.25 C 9.921875 -12.320312 10.222656 -12.390625 10.390625 -12.453125 L 10.390625 -10.28125 L 10.21875 -10.296875 L 10.21875 -10.59375 C 10.21875 -10.863281 10.117188 -11.097656 9.921875 -11.296875 C 9.722656 -11.503906 9.492188 -11.613281 9.234375 -11.625 L 5.9375 -11.625 L 5.9375 -1.25 C 5.945312 -0.832031 6.132812 -0.519531 6.5 -0.3125 C 6.664062 -0.21875 6.847656 -0.171875 7.046875 -0.171875 L 7.28125 -0.171875 L 7.28125 0 L 3.484375 0 L 3.484375 -0.171875 L 3.703125 -0.171875 C 4.003906 -0.171875 4.257812 -0.273438 4.46875 -0.484375 C 4.6875 -0.691406 4.800781 -0.941406 4.8125 -1.234375 L 4.8125 -11.625 L 1.1875 -11.625 C 0.269531 -11.625 -0.394531 -11.332031 -0.8125 -10.75 C -1.03125 -10.445312 -1.140625 -10.128906 -1.140625 -9.796875 C -1.140625 -9.472656 -1.050781 -9.128906 -0.875 -8.765625 Z M -1 -8.6875 "/></g></g></g><g fill="#ab8529" fill-opacity="1"><g transform="translate(56.105583, 104.062828)"><g><path d="M 9.484375 -0.171875 C 9.773438 -0.171875 10.023438 -0.273438 10.234375 -0.484375 C 10.453125 -0.703125 10.570312 -0.957031 10.59375 -1.25 L 10.59375 -5.734375 L 3.5 -5.734375 L 3.5 -1.25 C 3.5 -0.945312 3.609375 -0.691406 3.828125 -0.484375 C 4.046875 -0.273438 4.304688 -0.171875 4.609375 -0.171875 L 4.828125 -0.171875 L 4.828125 0 L 1.046875 0 L 1.046875 -0.171875 L 1.265625 -0.171875 C 1.566406 -0.171875 1.820312 -0.273438 2.03125 -0.484375 C 2.25 -0.691406 2.363281 -0.945312 2.375 -1.25 L 2.375 -10.875 C 2.363281 -11.175781 2.25 -11.429688 2.03125 -11.640625 C 1.820312 -11.847656 1.566406 -11.953125 1.265625 -11.953125 L 1.046875 -11.953125 L 1.046875 -12.125 L 4.828125 -12.125 L 4.828125 -11.953125 L 4.609375 -11.953125 C 4.304688 -11.953125 4.046875 -11.847656 3.828125 -11.640625 C 3.617188 -11.429688 3.507812 -11.175781 3.5 -10.875 L 3.5 -6.25 L 10.59375 -6.25 L 10.59375 -10.875 C 10.570312 -11.289062 10.382812 -11.601562 10.03125 -11.8125 C 9.851562 -11.90625 9.671875 -11.953125 9.484375 -11.953125 L 9.25 -11.953125 L 9.25 -12.125 L 13.046875 -12.125 L 13.046875 -11.953125 L 12.828125 -11.953125 C 12.523438 -11.953125 12.265625 -11.84375 12.046875 -11.625 C 11.835938 -11.414062 11.726562 -11.160156 11.71875 -10.859375 L 11.71875 -1.25 C 11.726562 -0.945312 11.835938 -0.691406 12.046875 -0.484375 C 12.265625 -0.273438 12.523438 -0.171875 12.828125 -0.171875 L 13.046875 -0.171875 L 13.046875 0 L 9.25 0 L 9.25 -0.171875 Z M 9.484375 -0.171875 "/></g></g></g><g fill="#ab8529" fill-opacity="1"><g transform="translate(70.188793, 104.062828)"><g><path d="M 1.265625 -0.171875 C 1.566406 -0.171875 1.820312 -0.273438 2.03125 -0.484375 C 2.25 -0.703125 2.363281 -0.960938 2.375 -1.265625 L 2.375 -10.96875 C 2.375 -11.25 2.265625 -11.484375 2.046875 -11.671875 C 1.828125 -11.859375 1.566406 -11.953125 1.265625 -11.953125 L 1.0625 -11.953125 L 1.046875 -12.125 L 6.109375 -12.125 C 6.472656 -12.125 6.863281 -12.160156 7.28125 -12.234375 C 7.707031 -12.304688 8.003906 -12.375 8.171875 -12.4375 L 8.171875 -10.265625 L 8 -10.265625 L 8 -10.5625 C 8 -10.84375 7.90625 -11.082031 7.71875 -11.28125 C 7.53125 -11.476562 7.300781 -11.582031 7.03125 -11.59375 L 3.5 -11.59375 L 3.5 -6.234375 L 6.421875 -6.234375 C 6.660156 -6.242188 6.859375 -6.328125 7.015625 -6.484375 C 7.179688 -6.648438 7.265625 -6.859375 7.265625 -7.109375 L 7.265625 -7.34375 L 7.4375 -7.34375 L 7.4375 -4.609375 L 7.265625 -4.609375 L 7.265625 -4.875 C 7.265625 -5.101562 7.1875 -5.296875 7.03125 -5.453125 C 6.875 -5.617188 6.679688 -5.707031 6.453125 -5.71875 L 3.5 -5.71875 L 3.5 -0.53125 L 5.984375 -0.53125 C 6.835938 -0.53125 7.488281 -0.722656 7.9375 -1.109375 C 8.382812 -1.492188 8.757812 -2.0625 9.0625 -2.8125 L 9.234375 -2.8125 L 8.234375 0 L 1.046875 0 L 1.046875 -0.171875 Z M 1.265625 -0.171875 "/></g></g></g><g fill="#ab8529" fill-opacity="1"><g transform="translate(80.18389, 104.062828)"><g/></g></g><g fill="#ab8529" fill-opacity="1"><g transform="translate(84.514525, 104.062828)"><g><path d="M 16.421875 2.953125 C 15.941406 3.078125 15.515625 3.140625 15.140625 3.140625 C 14.765625 3.140625 14.429688 3.113281 14.140625 3.0625 C 13.847656 3.019531 13.535156 2.929688 13.203125 2.796875 C 12.878906 2.660156 12.570312 2.503906 12.28125 2.328125 C 12 2.160156 11.710938 1.953125 11.421875 1.703125 C 10.890625 1.273438 10.40625 0.8125 9.96875 0.3125 C 9.539062 -0.1875 8.707031 -1.117188 7.46875 -2.484375 C 6.226562 -3.859375 5.40625 -4.769531 5 -5.21875 C 4.601562 -5.664062 4.296875 -5.898438 4.078125 -5.921875 L 4.078125 -6.09375 C 4.742188 -6.09375 5.1875 -6.109375 5.40625 -6.140625 C 5.632812 -6.171875 5.875 -6.222656 6.125 -6.296875 C 6.382812 -6.367188 6.601562 -6.472656 6.78125 -6.609375 C 7.457031 -7.046875 7.796875 -7.769531 7.796875 -8.78125 C 7.796875 -9.625 7.609375 -10.300781 7.234375 -10.8125 C 6.859375 -11.320312 6.332031 -11.582031 5.65625 -11.59375 L 3.5 -11.59375 L 3.5 -1.265625 C 3.5 -0.972656 3.601562 -0.71875 3.8125 -0.5 C 4.03125 -0.28125 4.296875 -0.171875 4.609375 -0.171875 L 4.8125 -0.171875 L 4.828125 0 L 1.046875 0 L 1.046875 -0.171875 L 1.265625 -0.171875 C 1.554688 -0.171875 1.8125 -0.273438 2.03125 -0.484375 C 2.25 -0.691406 2.363281 -0.945312 2.375 -1.25 L 2.375 -10.859375 C 2.363281 -11.160156 2.25 -11.414062 2.03125 -11.625 C 1.820312 -11.84375 1.566406 -11.953125 1.265625 -11.953125 L 1.046875 -11.953125 L 1.046875 -12.125 L 5.71875 -12.125 C 6.738281 -12.125 7.554688 -11.835938 8.171875 -11.265625 C 8.785156 -10.703125 9.09375 -9.945312 9.09375 -9 C 9.09375 -8.0625 8.8125 -7.253906 8.25 -6.578125 C 7.6875 -5.898438 6.992188 -5.5625 6.171875 -5.5625 C 6.171875 -5.5625 6.164062 -5.5625 6.15625 -5.5625 C 6.539062 -5.144531 6.984375 -4.660156 7.484375 -4.109375 C 9.484375 -1.898438 10.765625 -0.515625 11.328125 0.046875 C 11.898438 0.617188 12.398438 1.085938 12.828125 1.453125 C 13.265625 1.816406 13.648438 2.082031 13.984375 2.25 C 14.660156 2.625 15.335938 2.8125 16.015625 2.8125 C 16.148438 2.8125 16.285156 2.796875 16.421875 2.765625 Z M 16.421875 2.953125 "/></g></g></g><g fill="#ab8529" fill-opacity="1"><g transform="translate(95.808808, 104.062828)"><g><path d="M 1.265625 -0.171875 C 1.566406 -0.171875 1.820312 -0.273438 2.03125 -0.484375 C 2.25 -0.703125 2.363281 -0.960938 2.375 -1.265625 L 2.375 -10.875 C 2.363281 -11.175781 2.25 -11.429688 2.03125 -11.640625 C 1.820312 -11.847656 1.566406 -11.953125 1.265625 -11.953125 L 1.046875 -11.953125 L 1.046875 -12.125 L 4.828125 -12.125 L 4.828125 -11.953125 L 4.609375 -11.953125 C 4.304688 -11.953125 4.046875 -11.847656 3.828125 -11.640625 C 3.617188 -11.429688 3.507812 -11.175781 3.5 -10.875 L 3.5 -1.265625 C 3.5 -0.960938 3.609375 -0.703125 3.828125 -0.484375 C 4.046875 -0.273438 4.304688 -0.171875 4.609375 -0.171875 L 4.828125 -0.171875 L 4.828125 0 L 1.046875 0 L 1.046875 -0.171875 Z M 1.265625 -0.171875 "/></g></g></g><g fill="#ab8529" fill-opacity="1"><g transform="translate(101.663824, 104.062828)"><g><path d="M 7.265625 0.25 C 5.410156 0.226562 3.910156 -0.351562 2.765625 -1.5 C 1.617188 -2.65625 1.046875 -4.175781 1.046875 -6.0625 C 1.046875 -7.945312 1.617188 -9.46875 2.765625 -10.625 C 3.910156 -11.789062 5.410156 -12.375 7.265625 -12.375 C 8.859375 -12.375 10.257812 -11.976562 11.46875 -11.1875 L 11.8125 -8.75 L 11.65625 -8.75 C 11.40625 -9.738281 10.894531 -10.503906 10.125 -11.046875 C 9.351562 -11.585938 8.398438 -11.859375 7.265625 -11.859375 C 5.796875 -11.859375 4.609375 -11.320312 3.703125 -10.25 C 2.796875 -9.1875 2.34375 -7.789062 2.34375 -6.0625 C 2.34375 -4.332031 2.796875 -2.9375 3.703125 -1.875 C 4.609375 -0.820312 5.796875 -0.289062 7.265625 -0.28125 C 8.015625 -0.28125 8.726562 -0.410156 9.40625 -0.671875 C 10.082031 -0.941406 10.671875 -1.3125 11.171875 -1.78125 L 11.171875 -4.859375 C 11.171875 -5.109375 11.09375 -5.296875 10.9375 -5.421875 C 10.78125 -5.554688 10.566406 -5.625 10.296875 -5.625 L 10.015625 -5.625 L 10.015625 -5.8125 L 13.40625 -5.8125 L 13.40625 -5.625 L 13.15625 -5.625 C 12.863281 -5.625 12.640625 -5.554688 12.484375 -5.421875 C 12.335938 -5.296875 12.269531 -5.109375 12.28125 -4.859375 L 12.28125 -2 C 11.976562 -1.601562 11.617188 -1.25 11.203125 -0.9375 C 10.796875 -0.625 10.238281 -0.347656 9.53125 -0.109375 C 8.832031 0.128906 8.078125 0.25 7.265625 0.25 Z M 7.265625 0.25 "/></g></g></g><g fill="#ab8529" fill-opacity="1"><g transform="translate(115.4872, 104.062828)"><g><path d="M 9.484375 -0.171875 C 9.773438 -0.171875 10.023438 -0.273438 10.234375 -0.484375 C 10.453125 -0.703125 10.570312 -0.957031 10.59375 -1.25 L 10.59375 -5.734375 L 3.5 -5.734375 L 3.5 -1.25 C 3.5 -0.945312 3.609375 -0.691406 3.828125 -0.484375 C 4.046875 -0.273438 4.304688 -0.171875 4.609375 -0.171875 L 4.828125 -0.171875 L 4.828125 0 L 1.046875 0 L 1.046875 -0.171875 L 1.265625 -0.171875 C 1.566406 -0.171875 1.820312 -0.273438 2.03125 -0.484375 C 2.25 -0.691406 2.363281 -0.945312 2.375 -1.25 L 2.375 -10.875 C 2.363281 -11.175781 2.25 -11.429688 2.03125 -11.640625 C 1.820312 -11.847656 1.566406 -11.953125 1.265625 -11.953125 L 1.046875 -11.953125 L 1.046875 -12.125 L 4.828125 -12.125 L 4.828125 -11.953125 L 4.609375 -11.953125 C 4.304688 -11.953125 4.046875 -11.847656 3.828125 -11.640625 C 3.617188 -11.429688 3.507812 -11.175781 3.5 -10.875 L 3.5 -6.25 L 10.59375 -6.25 L 10.59375 -10.875 C 10.570312 -11.289062 10.382812 -11.601562 10.03125 -11.8125 C 9.851562 -11.90625 9.671875 -11.953125 9.484375 -11.953125 L 9.25 -11.953125 L 9.25 -12.125 L 13.046875 -12.125 L 13.046875 -11.953125 L 12.828125 -11.953125 C 12.523438 -11.953125 12.265625 -11.84375 12.046875 -11.625 C 11.835938 -11.414062 11.726562 -11.160156 11.71875 -10.859375 L 11.71875 -1.25 C 11.726562 -0.945312 11.835938 -0.691406 12.046875 -0.484375 C 12.265625 -0.273438 12.523438 -0.171875 12.828125 -0.171875 L 13.046875 -0.171875 L 13.046875 0 L 9.25 0 L 9.25 -0.171875 Z M 9.484375 -0.171875 "/></g></g></g><g fill="#ab8529" fill-opacity="1"><g transform="translate(129.570411, 104.062828)"><g><path d="M 10.203125 -10.59375 C 10.203125 -10.863281 10.101562 -11.097656 9.90625 -11.296875 C 9.707031 -11.503906 9.476562 -11.613281 9.21875 -11.625 L 5.921875 -11.625 L 5.921875 -1.25 C 5.929688 -0.945312 6.039062 -0.691406 6.25 -0.484375 C 6.46875 -0.273438 6.726562 -0.171875 7.03125 -0.171875 L 7.265625 -0.171875 L 7.265625 0 L 3.46875 0 L 3.46875 -0.171875 L 3.6875 -0.171875 C 3.988281 -0.171875 4.242188 -0.273438 4.453125 -0.484375 C 4.671875 -0.691406 4.785156 -0.941406 4.796875 -1.234375 L 4.796875 -11.625 L 1.5 -11.625 C 1.226562 -11.613281 0.992188 -11.503906 0.796875 -11.296875 C 0.609375 -11.097656 0.515625 -10.863281 0.515625 -10.59375 L 0.515625 -10.296875 L 0.34375 -10.28125 L 0.34375 -12.453125 C 0.519531 -12.390625 0.820312 -12.320312 1.25 -12.25 C 1.675781 -12.175781 2.066406 -12.140625 2.421875 -12.140625 L 8.28125 -12.140625 C 8.84375 -12.140625 9.3125 -12.179688 9.6875 -12.265625 C 10.070312 -12.359375 10.300781 -12.421875 10.375 -12.453125 L 10.375 -10.28125 L 10.203125 -10.296875 Z M 10.203125 -10.59375 "/></g></g></g></svg>